<svg version="1.1" viewBox="0 0 1600 1600" width="1280" height="1280" xmlns="http://www.w3.org/2000/svg">
<path transform="translate(0)" d="m0 0h1600v1600h-1600v-1600z" fill="#FBFDFD"/>
<path transform="translate(0)" d="m0 0h1600v1600h-1600v-1600zm662 61.4c-3.41 0.696-6.83 1.36-10.2 2.02-17.1 3.28-17.1 3.28-33.9 7.53-2.8 0.786-5.58 1.51-8.41 2.19-12.4 3.03-24.5 6.78-36.6 10.8-0.749 0.251-1.5 0.502-2.27 0.761-21.5 7.21-21.5 7.21-42.7 15.3l-2.35 0.947c-2.45 0.988-4.89 1.99-7.33 2.99-0.891 0.364-1.78 0.727-2.7 1.1-34.3 14.1-67.5 30.8-99.3 49.9-1.55 0.918-3.09 1.84-4.64 2.75-18.4 11-36.2 23.2-53.5 35.9-2.61 1.91-5.23 3.79-7.86 5.67-5.13 3.74-10.1 7.68-15 11.7-1.27 1.03-2.53 2.05-3.8 3.08-2.77 2.25-5.54 4.5-8.31 6.76-2.29 1.87-4.6 3.73-6.91 5.58-6.61 5.31-12.8 11-19 16.8-1.48 1.37-2.96 2.72-4.46 4.07-8.29 7.5-16.2 15.3-24.1 23.2-2.2 2.21-4.41 4.41-6.62 6.61-1.43 1.43-2.85 2.86-4.28 4.28-0.972 0.969-0.972 0.969-1.96 1.96-4.37 4.39-8.47 8.96-12.5 13.7-1.39 1.55-2.79 3.09-4.19 4.62-8.48 9.42-16.7 19-24.3 29.1-2.1 2.78-4.26 5.51-6.44 8.24-6.41 8.06-12.5 16.4-18.4 24.7-1.58 2.22-3.17 4.43-4.76 6.64-6.28 8.76-12.2 17.7-17.8 26.9-1.49 2.42-3.03 4.8-4.58 7.18-9.6 15.1-18.1 30.8-26.5 46.6-0.508 0.946-1.02 1.89-1.54 2.87-8.45 15.8-16.2 31.8-23.5 48.1-0.277 0.626-0.553 1.25-0.839 1.9-20.1 45.7-34.6 93.4-45.2 142l-0.754 3.49c-1.53 7.15-2.92 14.3-4.25 21.5l-0.612 3.23c-4.57 24.5-6.7 49.3-8.88 74.1-0.397 4.51-0.822 9.02-1.26 13.5-3.25 34.9-1.22 69.8 2.49 105 0.255 2.42 0.499 4.85 0.738 7.27 4.88 49.5 14.6 98.8 29.5 146 0.402 1.29 0.803 2.58 1.2 3.87 11.2 35.8 25.7 70.3 41.8 104l1.46 3.07c6.08 12.7 12.9 25 20 37.2 1.49 2.58 2.96 5.17 4.43 7.76 20.1 35.3 44 67.8 69.7 99.2 1.3 1.6 2.59 3.2 3.87 4.81 5.02 6.25 10.3 12.1 15.8 18 2.26 2.42 4.45 4.88 6.61 7.39 2.78 3.23 5.74 6.22 8.8 9.18 1.38 1.45 1.38 1.45 2.38 3.45h2l0.75 1.88c1.46 2.48 2.63 3.08 5.25 4.12v2h2v2h2l0.613 1.64c1.95 3.33 4.72 5.64 7.57 8.18 1.19 1.07 2.37 2.14 3.55 3.22l1.72 1.55c1.84 1.69 3.61 3.44 5.35 5.23 2.86 2.91 5.88 5.59 8.98 8.25 2.49 2.18 4.91 4.43 7.34 6.68 4.59 4.19 9.35 8.07 14.3 11.9 3.98 3.08 7.87 6.25 11.7 9.48 8.6 7.19 17.5 13.8 26.6 20.3 2.22 1.58 4.42 3.19 6.61 4.82 10.7 7.86 21.7 15.1 32.9 22.1 2.63 1.64 5.25 3.3 7.86 4.96 14 8.83 28.3 16.9 42.9 24.8l3.26 1.77c19.4 10.5 39.5 19.5 59.7 28.2 1.21 0.522 2.41 1.04 3.65 1.58 11.7 5.04 23.4 9.65 35.5 13.5 3.44 1.11 6.86 2.28 10.3 3.44 61.4 20.9 124 32.2 189 37.7 1.25 0.108 1.25 0.108 2.53 0.217 16.6 1.33 33.3 1.8 50 1.78 0.963-6.04e-4 1.93-0.00121 2.92-0.00183 14.3-0.0242 28.4-0.428 42.6-1.81 3.85-0.369 7.7-0.711 11.6-1.05 4.74-0.414 9.47-0.839 14.2-1.26 1.34-0.119 1.34-0.119 2.71-0.24 18.2-1.63 36.2-4.11 54.2-7.42 2.31-0.417 4.62-0.809 6.93-1.2 11.8-2.02 23.5-4.53 35.2-7.2 0.736-0.167 1.47-0.335 2.23-0.507 14.3-3.27 28.5-6.96 42.5-11.3 1.12-0.347 2.24-0.694 3.4-1.05 9.15-2.85 18.2-5.89 27.2-9.16 1.89-0.686 3.79-1.37 5.69-2.04 18.4-6.54 36.2-13.9 54-21.9 0.627-0.281 1.25-0.562 1.9-0.852 37.1-16.7 72.3-36.5 106-59.1 0.743-0.498 1.49-0.997 2.25-1.51 19.4-13.1 38-27.1 56.1-41.9 3.32-2.71 6.66-5.37 10.1-7.93 6.55-5.05 12.4-10.9 18.4-16.6 1.97-1.86 3.95-3.7 5.94-5.54 9.47-8.78 18.7-17.8 27.8-27 0.611-0.609 1.22-1.22 1.85-1.84 8.82-8.77 8.82-8.77 17.1-18 1.56-1.79 3.21-3.45 4.9-5.12 8.58-8.49 16-18.1 23.5-27.5 0.475-0.591 0.95-1.18 1.44-1.79 7.62-9.51 14.9-19.3 22-29.1 1.22-1.67 2.45-3.33 3.69-4.99 51.1-68.8 86.6-148 111-230 0.567-1.88 0.567-1.88 1.14-3.8 4.55-15.4 7.97-31.1 10.9-46.9 0.768-4.19 1.6-8.36 2.45-12.5 8.48-42.2 12.6-85.7 13.5-129l0.0986-3.32c1.02-37.4-2.06-75.4-7.6-112-0.524-3.51-1.01-7.02-1.5-10.5-1.72-12.3-3.8-24.4-6.5-36.5-0.897-4.13-1.69-8.28-2.5-12.4-2.49-12.6-5.33-25-8.95-37.3-0.989-3.38-1.94-6.77-2.9-10.2-9.73-34.1-22.7-67.1-37.2-99.4l-1.48-3.33c-12.3-27.5-26.6-54.1-42.5-79.7-0.553-0.886-1.11-1.77-1.68-2.68-12.3-19.6-25.2-39-39.3-57.3-1.14-1.5-1.14-1.5-2.3-3.04-6.23-8.2-12.7-16.2-19.2-24.2-1.26-1.55-2.5-3.11-3.74-4.67-5.29-6.65-11-12.8-16.9-18.9-0.653-0.685-1.31-1.37-1.98-2.07-0.576-0.6-1.15-1.2-1.75-1.82-1.83-1.98-3.6-4-5.36-6.04-3.77-4.32-7.76-8.4-11.8-12.4-0.748-0.749-1.5-1.5-2.27-2.27-1.57-1.57-3.14-3.14-4.72-4.71-2.39-2.38-4.77-4.77-7.16-7.16-1.54-1.54-3.07-3.07-4.61-4.61-0.702-0.704-1.4-1.41-2.13-2.13-3.98-3.96-8.05-7.74-12.3-11.4-2.13-1.84-4.17-3.76-6.22-5.69-11.6-10.9-24-20.9-36.7-30.4-2.12-1.6-4.22-3.21-6.33-4.82-33.4-25.4-69-47.2-106-66.8-2.34-1.24-4.67-2.5-7-3.77-9.52-5.2-19.3-9.7-29.2-14.1-1.6-0.707-3.21-1.41-4.81-2.12-10.8-4.74-21.5-9.47-32.4-13.9-1.1-0.445-1.1-0.445-2.22-0.899-10.3-4.13-20.6-7.8-31.1-11.2-3.07-1.01-6.12-2.04-9.18-3.08-51.4-17.4-105-27.1-159-32.5-2.65-0.27-5.3-0.548-7.95-0.827-67-7-135-3.68-201 9.99z" fill="#FBFDFD"/>
<path transform="translate(493 923)" d="m0 0c6.98 0.00225 14 0.0021 20.9 5.41e-4 1.02-2.27e-4 2.04-4.53e-4 3.08-6.87e-4 2.08-4.71e-4 4.15-9.46e-4 6.23-0.00142 24.3-0.00522 48.5 4.73e-4 72.8 0.00843 8.02 0.00261 16 0.00477 24.1 0.00666 63.4 0.015 127 0.051 190 0.102 17 0.0136 34 0.0257 51.1 0.0365 52.4 0.0333 105 0.0809 157 0.17 4.4 0.0075 8.8 0.015 13.2 0.0224 1.62 0.00277 1.62 0.00277 3.28 0.00559 16.3 0.0276 32.7 0.0443 49 0.0553 18.5 0.0125 37 0.0388 55.5 0.084 10.3 0.0248 20.7 0.0388 31 0.0371 6.89-3.04e-5 13.8 0.0144 20.7 0.0407 3.92 0.0146 7.85 0.0229 11.8 0.0136 4.23-0.00981 8.45 0.0112 12.7 0.0352 1.22-0.00776 2.43-0.0155 3.69-0.0235 8.19 0.0828 15.7 1.11 22.1 6.69 0.516 0.735 1.03 1.47 1.56 2.23 0.536 0.73 1.07 1.46 1.62 2.21 11.6 20.3 1.71 57.9-4.07 79.1-7.72 26.6-19.2 52.3-34.6 75.3-0.479 0.721-0.959 1.44-1.45 2.19-6.86 10.2-14.3 19.7-22.5 28.8-0.812 0.923-1.62 1.85-2.46 2.8-6.18 6.9-12.7 13.5-19.2 20-0.891 0.896-1.78 1.79-2.7 2.72-8.51 8.48-17.5 16.1-26.9 23.7-0.728 0.594-1.46 1.19-2.21 1.8-0.656 0.531-1.31 1.06-1.99 1.61-1.67 1.34-1.67 1.34-2.55 3.4-0.103 2.33-0.138 4.66-0.145 6.99-0.00353 0.728-0.00705 1.46-0.0107 2.21-0.0107 2.45-0.0144 4.9-0.0181 7.35-0.0063 1.75-0.0131 3.5-0.0203 5.26-0.0147 3.78-0.0264 7.56-0.0359 11.3-0.0154 5.98-0.0394 12-0.0649 17.9-0.0713 17-0.131 34-0.182 51-0.0283 9.39-0.0637 18.8-0.107 28.2-0.0268 5.94-0.0447 11.9-0.056 17.8-0.00914 3.7-0.0265 7.4-0.0462 11.1-0.00746 1.71-0.0116 3.43-0.012 5.14-0.00109 2.34-0.0144 4.69-0.0306 7.03-0.00423 1.31-0.00846 2.62-0.0128 3.97-0.404 5.7-1.56 10.5-5.32 14.9-0.791 0.967-0.791 0.967-1.6 1.95-6.45 4.95-14.2 5.23-22 5.17-1.04 0.00436-2.09 0.00872-3.16 0.0132-3.49 0.0109-6.99 5.37e-4 -10.5-0.00979-2.53 0.00346-5.06 0.00822-7.59 0.0142-5.5 0.00992-11 0.0105-16.5 0.00286-8.18-0.0114-16.4-0.00554-24.5 0.00362-14.6 0.0158-29.2 0.0144-43.8 0.00576-12.8-0.00755-25.6-0.00952-38.4-0.00593-0.848 2.29e-4 -1.7 4.58e-4 -2.57 6.94e-4 -3.44 9.34e-4 -6.89 0.00189-10.3 0.00288-32.3 0.00918-64.6 8.56e-4 -96.9-0.0153-28.7-0.0142-57.4-0.013-86.1 0.00138-32.2 0.0161-64.5 0.0224-96.7 0.0132-3.44-9.62e-4 -6.87-0.0019-10.3-0.00283-0.846-2.37e-4 -1.69-4.74e-4 -2.56-7.19e-4 -12.8-0.00341-25.6 5.81e-4 -38.3 0.00816-14.5 0.00857-29.1 0.00645-43.6-0.00984-8.13-0.00882-16.3-0.00937-24.4 0.00194-6.07 0.0075-12.1-6.14e-4 -18.2-0.0149-2.46-0.00336-4.92-0.00162-7.38 0.00563-3.33 0.00908-6.67-1.89e-4 -10-0.0142-1.44 0.0105-1.44 0.0105-2.92 0.0213-6.65-0.056-11.5-0.973-16.8-5.31-0.951-1.07-0.951-1.07-1.92-2.15-0.645-0.692-1.29-1.38-1.95-2.1-5.83-9.21-5.22-19.7-5.17-30.1-0.00247-1.74-0.00631-3.47-0.0114-5.21-0.0083-3.72-0.00756-7.45 1.85e-4 -11.2 0.0116-5.89-6.15e-4 -11.8-0.0166-17.7-0.0361-14.6-0.0424-29.2-0.0399-43.8 0.00171-11.4-0.00537-22.8-0.04-34.1-0.0168-5.85-0.015-11.7 8.23e-4 -17.6 0.00579-3.64-0.00493-7.27-0.0202-10.9-0.00373-1.69-6.05e-4 -3.37 0.00987-5.06 0.0133-2.3 0.00218-4.6-0.015-6.9 3.14e-4 -1.93 3.14e-4 -1.93 6.34e-4 -3.9-0.766-5.14-3.35-7.42-7.28-10.6-1.04-0.762-2.09-1.52-3.16-2.31-6.1-4.55-11.7-9.53-17.2-14.8-2.2-2.06-4.42-4.02-6.75-5.94-3.03-2.55-5.5-5.41-8.05-8.43-2.53-2.84-5.23-5.48-7.95-8.14-5.48-5.41-10.4-11.1-15.1-17.2-0.801-1.01-1.6-2.01-2.43-3.05-28.1-35.6-48.9-79.7-54.6-125-0.0943-0.741-0.189-1.48-0.286-2.24-0.831-7.29-0.933-14.6-0.964-21.9-0.0206-1.22-0.0412-2.45-0.0625-3.71-0.0411-9.5 1.04-16.5 7.64-23.6 6.52-5.99 13.5-6.67 22-6.85 1.28-0.0307 1.28-0.0307 2.59-0.062 2.93-0.0667 5.85-0.124 8.78-0.18 1.05-0.021 2.1-0.0419 3.18-0.0635 33.1-0.64 66.2-0.529 99.3-0.517z" fill="#000002"/>
<path transform="translate(1008 78.2)" d="m0 0c2.87 0.925 5.75 1.83 8.63 2.73 13.1 4.11 26.1 8.4 38.9 13.1 0.927 0.337 1.85 0.673 2.81 1.02 35.9 13.1 70.9 29.3 104 48 1.29 0.721 1.29 0.721 2.62 1.46 22.2 12.4 43.5 26 64.4 40.5 0.693 0.483 1.39 0.967 2.1 1.46 8.49 5.94 16.7 12.2 24.9 18.5 0.578 0.45 1.16 0.9 1.75 1.36 11.4 8.88 22.6 17.9 33.2 27.6 1.46 1.33 1.46 1.33 2.94 2.7 1.94 1.78 3.87 3.56 5.81 5.34 1.73 1.59 3.48 3.17 5.25 4.72 7.96 7.01 15.4 14.5 22.9 22 2.29 2.3 4.59 4.59 6.89 6.88 1.48 1.48 2.96 2.96 4.44 4.45 0.676 0.674 1.35 1.35 2.05 2.04 3.89 3.91 7.6 7.91 11.2 12.1 1.85 2.13 3.77 4.18 5.7 6.23 10.6 11.2 20.2 23.2 29.5 35.4 1.98 2.6 3.98 5.18 5.99 7.75 16.1 20.7 30.8 42.9 44.4 65.3 0.485 0.8 0.97 1.6 1.47 2.42 11.3 18.7 22 37.8 31.5 57.4 1.16 2.38 2.34 4.76 3.51 7.14 13.5 27.5 24.7 56 34.8 84.9 0.619 1.78 0.619 1.78 1.25 3.59 3.62 10.5 6.68 21.2 9.5 32 1.24 4.71 2.55 9.39 3.94 14.1 4.69 16.4 7.83 33 10.6 49.8 0.524 3.12 1.07 6.24 1.63 9.36 0.49 2.74 0.97 5.49 1.45 8.23 0.24 1.36 0.483 2.73 0.729 4.09 4.12 22.8 6.15 45.9 7.82 69 0.0865 1.2 0.173 2.39 0.262 3.63 2.25 31.6 1.64 62.7-0.45 94.3-0.0801 1.23-0.16 2.46-0.243 3.72-0.496 7.43-1.09 14.9-1.76 22.3-0.0883 0.999-0.177 2-0.268 3.03-1.41 15.5-3.7 30.8-6.17 46.1-0.145 0.91-0.29 1.82-0.44 2.76-1.7 10.6-3.69 21-6.24 31.4-1.09 4.51-1.97 9.05-2.82 13.6-1.68 8.65-3.87 17.1-6.34 25.5-0.813 2.85-1.59 5.7-2.36 8.56-3.06 11.3-6.37 22.3-10.6 33.2-1.5 3.91-2.82 7.87-4.12 11.9-2.56 7.77-5.4 15.4-8.4 23-0.271 0.691-0.542 1.38-0.822 2.09-7.07 17.9-15.2 35.4-23.4 52.8-0.502 1.06-1 2.11-1.52 3.2-6.11 12.8-13 25-20 37.3-1.22 2.13-2.43 4.27-3.62 6.41-12.1 21.7-25.9 42.7-41 62.4-2.23 2.92-4.36 5.9-6.47 8.91-4.72 6.76-9.8 13.1-15.1 19.5-3.2 3.84-6.34 7.71-9.37 11.7-6.17 8.06-13 15.4-20 22.7-1.66 1.75-3.3 3.51-4.92 5.3-8.18 8.96-16.7 17.6-25.3 26.1-0.612 0.615-1.22 1.23-1.85 1.86-5.92 5.93-11.8 11.8-18.2 17.3-2.14 1.85-4.11 3.84-6.08 5.87-8.01 8.08-16.9 15-25.8 22.1-2.22 1.76-4.42 3.54-6.62 5.32-19.7 15.7-40.1 30.3-61.1 44.1-1.01 0.665-2.03 1.33-3.07 2.02-14.1 9.13-28.7 17.6-43.5 25.7-2.54 1.39-5.06 2.82-7.58 4.24-26.5 14.9-54.5 27.1-82.8 38.1-0.792 0.31-1.58 0.62-2.4 0.94-11.4 4.44-23.1 8.28-34.7 12.2-0.753 0.254-1.51 0.509-2.28 0.77-10.4 3.52-20.9 6.68-31.6 9.54-2.21 0.598-4.42 1.21-6.63 1.82-22 6.07-44.4 10.8-67 13.8-4.17 0.567-8.31 1.25-12.4 2.01-9.69 1.78-19.4 2.97-29.2 3.98-1.63 0.171-3.27 0.343-4.9 0.515-4.64 0.485-9.27 0.957-13.9 1.42-1.17 0.118-2.34 0.235-3.55 0.356-2.88 0.285-5.76 0.562-8.64 0.831-1.13 0.107-1.13 0.107-2.29 0.217-15.5 1.38-31.1 1.8-46.6 1.78-0.959-6.04e-4 -1.92-0.00121-2.91-0.00183-35.6-0.0605-71.2-3.44-107-7.75-0.853-0.102-1.71-0.205-2.58-0.31-7.29-0.935-14.5-2.32-21.7-3.71-2.16-0.415-4.32-0.825-6.48-1.23-77.1-14.6-152-40.4-221-78.2l-2.96-1.62c-12.5-6.88-24.7-14.2-36.7-21.9-2.36-1.51-4.74-3-7.12-4.48-9.92-6.17-19.6-12.6-29.1-19.5-2.19-1.58-4.4-3.13-6.6-4.69-9.15-6.49-17.9-13.3-26.5-20.5-3.65-3.05-7.38-5.99-11.1-8.9-12.2-9.5-23.6-19.9-34.8-30.5-2.67-2.53-5.36-5.04-8.09-7.51-0.61-0.554-1.22-1.11-1.85-1.68-1.14-1.03-2.28-2.06-3.43-3.08-1.29-1.17-2.53-2.39-3.76-3.63v-2h-2v-2h-2v-2l-1.88-0.75c-2.48-1.46-3.08-2.63-4.12-5.25h-2c-1.48-1.5-1.48-1.5-3.19-3.56-2.35-2.76-4.72-5.4-7.31-7.94-3.04-2.99-5.85-6.12-8.63-9.36-2-2.3-4.06-4.53-6.12-6.77-3.99-4.42-7.68-9.02-11.3-13.7-3.09-3.98-6.25-7.87-9.48-11.7-8.08-9.67-15.6-19.7-22.9-29.9-0.518-0.717-1.04-1.43-1.57-2.17-11.6-16.1-22.5-32.7-32.4-49.8-0.441-0.758-0.883-1.52-1.34-2.3-18.7-32.3-35.5-65.2-49.7-99.7-0.408-0.994-0.408-0.994-0.825-2.01-19.2-46.9-32.8-95.2-42.2-145-0.199-1.04-0.199-1.04-0.401-2.1-4.9-25.7-7.7-51.6-10.1-77.7-0.382-4.13-0.801-8.26-1.24-12.4-5.47-53.5 0.452-110 9.32-163 0.121-0.726 0.242-1.45 0.366-2.2 4.92-29.3 11.2-58.7 20.1-87.1 0.219-0.704 0.439-1.41 0.665-2.13 19.1-61.1 44-120 77.3-175 0.375-0.619 0.75-1.24 1.14-1.87 11.7-19.3 24.4-38 37.9-56.1l1.24-1.68c4.9-6.67 9.99-13.2 15.2-19.6 2.49-3.08 4.96-6.18 7.37-9.32 5.91-7.68 12.2-14.9 18.8-21.9 2.1-2.24 4.16-4.52 6.21-6.8 0.646-0.718 1.29-1.44 1.96-2.18 1.24-1.4 2.48-2.8 3.7-4.22 4.34-5.03 8.89-9.79 13.6-14.5 0.748-0.749 1.5-1.5 2.27-2.27 1.57-1.57 3.14-3.14 4.72-4.71 2.39-2.38 4.77-4.77 7.16-7.16 1.54-1.54 3.07-3.07 4.61-4.61 0.702-0.704 1.4-1.41 2.13-2.13 3.98-3.96 8.05-7.74 12.3-11.4 2.61-2.25 5.11-4.61 7.64-6.96 5.18-4.78 10.6-9.24 16.1-13.6 2.29-1.79 4.58-3.58 6.88-5.38l1.82-1.42c3.81-2.98 7.51-6.06 11.2-9.21 5.05-4.24 10.3-8 15.8-11.7 4.32-2.91 8.56-5.91 12.8-9 10.9-7.98 22.1-15.2 33.6-22.3 1.18-0.745 2.37-1.49 3.55-2.24 26.8-16.7 54.9-31.5 83.5-44.8 0.978-0.458 1.96-0.916 2.96-1.39 10.3-4.8 20.5-9.37 31.2-13.2 2.54-0.915 5.06-1.88 7.56-2.9 29.8-12.1 61-21.5 92.3-28.8 2.96-0.702 5.9-1.45 8.85-2.2 29.8-7.5 60.7-12.1 91.3-15.1 3.49-0.366 6.97-0.772 10.5-1.19 88.9-10.6 188-0.601 274 27zm-534 101c-2.54 1.4-5.1 2.76-7.65 4.13-11 5.91-21.8 12.1-32.4 18.7-2.3 1.44-4.6 2.87-6.9 4.3-8.26 5.15-16.4 10.4-24.5 15.9-0.757 0.515-1.51 1.03-2.29 1.56-4.62 3.18-9.07 6.53-13.5 10-2.86 2.22-5.82 4.26-8.79 6.32-5.66 3.98-10.9 8.29-16.1 12.8-3.85 3.36-7.79 6.52-11.9 9.59-5.2 3.92-10.1 8.14-14.8 12.6-2.15 2-4.33 3.94-6.55 5.87-1.31 1.14-2.63 2.29-3.94 3.44-0.678 0.592-1.36 1.18-2.06 1.79-7.17 6.35-13.9 13.1-20.7 19.8-1.93 1.94-3.87 3.87-5.8 5.8-6.02 6.02-11.9 12.1-17.4 18.6-1.04 1.19-2.09 2.38-3.14 3.57-5.75 6.56-11.4 13.2-16.7 20.1-2.96 3.82-5.98 7.57-9.05 11.3-5.45 6.62-10.6 13.4-15.5 20.4-1.81 2.59-3.67 5.15-5.55 7.69-8.42 11.4-15.9 23.2-23.3 35.3-1.44 2.34-2.91 4.65-4.39 6.96-6.21 9.65-11.7 19.6-17.1 29.8-1.95 3.66-3.94 7.29-6 10.9-8.5 14.9-15.4 30.4-22.2 46.1-0.297 0.685-0.593 1.37-0.899 2.08-15 34.8-26.6 70.2-36.1 107-0.317 1.21-0.634 2.42-0.96 3.66-10.5 40.3-16.8 82.8-19 124-0.0549 0.965-0.11 1.93-0.167 2.92-4.79 86.8 7.62 173 79.9 363 1.41 2.61 2.81 5.22 4.21 7.83 5.9 11 12.1 21.8 18.7 32.3 1.45 2.32 2.9 4.65 4.34 6.98 6.22 10 12.8 19.7 19.7 29.3 1.34 1.87 2.67 3.76 4 5.64 5.48 7.79 11.2 15.3 17.2 22.8 1.12 1.4 2.23 2.8 3.33 4.21 8.27 10.4 17 20.5 25.9 30.4 1.46 1.62 2.92 3.25 4.38 4.88 1.54 1.71 3.08 3.42 4.62 5.12 0.796 0.883 1.59 1.77 2.41 2.68 6.38 7.02 12.9 13.8 19.7 20.5 1.63 1.62 3.25 3.25 4.88 4.88 5.51 5.52 11.1 10.9 17.1 15.9 1.61 1.45 3.21 2.91 4.81 4.38 4.32 3.9 8.77 7.61 13.3 11.3 2.46 2.01 4.87 4.07 7.27 6.14 9.16 7.9 18.9 15.1 28.6 22.2 0.765 0.565 1.53 1.13 2.32 1.71 17 12.5 34.5 24.2 52.5 35 2.08 1.24 4.15 2.5 6.22 3.76 9.92 5.97 20.1 11.4 30.4 16.7 3.23 1.66 6.43 3.34 9.61 5.09 9.61 5.29 19.5 9.9 29.5 14.5 0.693 0.318 1.39 0.637 2.1 0.965 8.78 4.02 17.6 7.7 26.7 11 3.71 1.37 7.36 2.84 11 4.35 7.72 3.14 15.6 5.74 23.5 8.31 1.85 0.61 3.69 1.25 5.53 1.9 12.4 4.36 25.2 7.53 37.9 10.8 3.22 0.839 6.44 1.7 9.65 2.56 41.2 10.9 84.4 17.3 127 19.4 1.49 0.0848 2.99 0.17 4.48 0.257 12.2 0.683 24.3 0.944 36.5 0.931 1.41-4.08e-4 1.41-4.08e-4 2.86-8.24e-4 27.8-0.0365 55.6-1.43 83.1-5.19 0.825-0.112 1.65-0.224 2.5-0.339 26.1-3.55 51.9-7.66 77.5-13.7 0.957-0.219 1.91-0.437 2.9-0.663 14.6-3.35 28.8-7.77 43.1-12.3 1.39-0.442 2.77-0.883 4.16-1.33 30.9-9.86 60.6-21.6 89.8-35.7 0.95-0.456 1.9-0.912 2.88-1.38 13.5-6.52 26.6-13.7 39.6-21.2 2.18-1.25 4.37-2.49 6.57-3.72 7.59-4.26 14.9-8.83 22.2-13.6 2.25-1.46 4.51-2.87 6.78-4.3 8.6-5.43 16.8-11.4 25-17.4 2.4-1.74 4.83-3.43 7.27-5.11 9.95-6.92 19.4-14.6 28.7-22.3 1.52-1.26 1.52-1.26 3.07-2.54 5.72-4.74 11.4-9.52 16.9-14.5l2.15-1.9c12.3-11 24.2-22.4 35.9-34 0.493-0.49 0.986-0.98 1.49-1.49 5.14-5.12 10.2-10.3 14.9-15.8 2.39-2.77 4.91-5.43 7.42-8.1 8.37-9.01 15.9-18.7 23.5-28.3 2.27-2.89 4.57-5.75 6.89-8.61 3.11-3.88 5.98-7.86 8.79-12 1.43-2.05 2.89-4.06 4.38-6.05 7.69-10.3 14.7-20.9 21.6-31.7 0.539-0.849 1.08-1.7 1.63-2.57 19-30 36.6-61.6 50.4-94.4 0.742-1.77 0.742-1.77 1.5-3.57 6.69-16 13.1-32 18.5-48.5 0.668-2.02 1.34-4.05 2.02-6.07 13.8-40.9 22.9-82.5 28.8-125 0.146-1.05 0.291-2.09 0.441-3.17 2.9-21.1 4.83-42.2 5.31-63.5 0.018-0.728 0.036-1.46 0.0546-2.21 0.129-5.24 0.232-10.5 0.32-15.7 0.012-0.675 0.024-1.35 0.0364-2.04 0.173-9.99 0.156-20-0.0364-30-0.0138-0.736-0.0276-1.47-0.0417-2.23-1.34-66.4-14.1-132-34-195-0.312-1.01-0.625-2.02-0.946-3.06-8.98-28.9-20.9-56.8-34.1-83.9-0.535-1.11-1.07-2.21-1.62-3.35-10.6-21.9-22.4-43.1-35.4-63.6-0.446-0.708-0.891-1.42-1.35-2.15-6.39-10.1-13.1-20-20.1-29.7-1.6-2.24-3.2-4.48-4.79-6.72-6.5-9.12-13.3-18-20.3-26.7-1.94-2.42-3.84-4.87-5.74-7.32-4.98-6.42-10.2-12.5-15.7-18.5-1.13-1.29-2.25-2.58-3.38-3.88-3.47-3.98-7.04-7.87-10.6-11.7-2.33-2.52-4.56-5.08-6.71-7.75-0.755-0.869-1.51-1.74-2.29-2.63h-2v-2h-2v-2h-2c-0.371-0.928-0.371-0.928-0.75-1.88-1.46-2.48-2.63-3.08-5.25-4.12v-2h-2c-0.245-0.581-0.49-1.16-0.742-1.76-1.48-2.63-3.1-4.09-5.38-6.05-3.99-3.5-7.89-7.07-11.7-10.7-6.01-5.7-12-11.2-18.5-16.4-2.79-2.23-5.52-4.53-8.24-6.84-6.88-5.73-14-11.2-21.1-16.6-1.48-1.12-2.96-2.23-4.44-3.35-31.4-23.8-64.9-44.3-99.8-62.3-1.01-0.529-2.03-1.06-3.08-1.6-67.8-35.2-142-57.4-217-68.3-1.01-0.146-2.02-0.291-3.07-0.441-31.4-4.46-62.4-5.91-94.1-5.87-1.09 0.00106-1.09 0.00106-2.19 0.00215-89.5 0.11-177 16.7-324 79.9z" fill="#000002"/>
<path transform="translate(527 974)" d="m0 0c0.845 0.00143 1.69 0.00285 2.56 0.00432 0.958-0.00308 1.92-0.00615 2.9-0.00932 1.04 0.00719 2.07 0.0144 3.14 0.0218 1.06 4.58e-4 2.12 9.16e-4 3.21 0.00139 2.24 0.00302 4.49 0.0109 6.73 0.0233 3.45 0.0183 6.9 0.0205 10.3 0.0203 2.18 0.00492 4.35 0.0107 6.53 0.0176 1.04 0.00111 2.08 0.00223 3.15 0.00337 0.954 0.00638 1.91 0.0128 2.89 0.0193 0.844 0.00381 1.69 0.00762 2.56 0.0116 1.93 0.134 1.93 0.134 2.93 1.13 0.105 2.27 0.138 4.55 0.145 6.83 0.00529 1.08 0.00529 1.08 0.0107 2.19 0.0107 2.44 0.0144 4.88 0.0181 7.32 0.0063 1.74 0.0131 3.48 0.0203 5.23 0.0147 3.76 0.0264 7.52 0.0359 11.3 0.0154 5.95 0.0394 11.9 0.0649 17.9 0.0713 16.9 0.131 33.8 0.182 50.8 0.0283 9.34 0.0637 18.7 0.107 28 0.0268 5.91 0.0447 11.8 0.056 17.7 0.00914 3.68 0.0265 7.37 0.0462 11.1 0.00746 1.71 0.0116 3.41 0.012 5.12 0.00109 2.33 0.0144 4.67 0.0306 7 0.00423 1.3 0.00846 2.61 0.0128 3.95 0.407 5.72 1.54 10.5 5.38 14.8 0.539 0.633 1.08 1.27 1.63 1.92 6.26 5.29 12.3 6.44 20.3 6.83 19.1 1.41 35.2 8.56 48.9 22.1 0.624 0.552 1.25 1.1 1.89 1.67 14.2 12.9 20 32.6 22 51 0.955 7.47 2.52 13.9 8.16 19.2 5.61 4.32 9.26 5.24 16.3 5.23 1.31 0.00446 1.31 0.00446 2.65 9e-3 2.95 0.00871 5.9 0.0102 8.85 0.0117 2.11 0.00463 4.21 0.00965 6.32 0.015 5.74 0.0131 11.5 0.0196 17.2 0.024 3.58 0.00293 7.17 0.00703 10.7 0.0115 11.2 0.0137 22.4 0.0233 33.6 0.0272 12.9 0.00448 25.9 0.022 38.8 0.051 10 0.0216 20 0.0317 30 0.033 5.97 0.00105 11.9 0.00697 17.9 0.0248 5.62 0.0165 11.2 0.0186 16.9 0.00986 2.06-7.71e-4 4.13 0.00358 6.19 0.0135 2.82 0.0127 5.63 0.00685 8.45-0.00358 1.22 0.0121 1.22 0.0121 2.47 0.0244 6.49-0.0561 11.2-1.37 16.2-5.7 5.46-6.35 6.89-10.6 7.31-18.8 1.34-17.7 7.31-33.4 19-46.9 0.531-0.674 1.06-1.35 1.61-2.04 10.5-13 28.9-23.3 45.6-25.2 3.33-0.343 6.65-0.679 9.99-0.924 7.36-0.611 13.4-2.53 18.8-7.82 3.36-5.05 4.5-8.25 4.51-14.4 0.0068-0.716 0.0136-1.43 0.0206-2.17 0.0179-2.38 0.00752-4.76-0.00282-7.14 0.0071-1.71 0.016-3.43 0.0265-5.14 0.0236-4.64 0.0229-9.28 0.0181-13.9-5.94e-4 -4.86 0.0221-9.73 0.0426-14.6 0.0354-9.21 0.0514-18.4 0.0598-27.6 0.013-13.5 0.0513-27 0.0941-40.6 0.00314-0.992 0.00628-1.98 0.00951-3.01 0.00628-1.98 0.0126-3.96 0.019-5.94 0.018-5.79 0.0292-11.6 0.0343-17.4 0.00384-3.6 0.0115-7.21 0.0198-10.8 0.00295-1.67 0.0042-3.34 0.00359-5-6.7e-4 -2.28 0.0047-4.56 0.0114-6.84 0.00126-1.27 0.00251-2.55 0.00381-3.86 0.349-9.8 0.349-9.8 3.13-12.6 2.02-0.247 2.02-0.247 4.53-0.243 0.938-0.00308 1.88-0.00615 2.84-0.00932 1.01 0.00719 2.03 0.0144 3.07 0.0218 1.56 6.87e-4 1.56 6.87e-4 3.15 0.00139 2.2 0.00302 4.39 0.0109 6.59 0.0233 3.38 0.0183 6.75 0.0205 10.1 0.0203 2.13 0.00492 4.26 0.0107 6.39 0.0176 1.52 0.00167 1.52 0.00167 3.08 0.00337 0.934 0.00638 1.87 0.0128 2.83 0.0193 0.827 0.00381 1.65 0.00762 2.51 0.0116 1.89 0.134 1.89 0.134 2.89 1.13 0.103 1.86 0.134 3.72 0.139 5.57 0.00547 1.22 0.0109 2.44 0.0166 3.69 0.00108 1.37 0.00206 2.74 0.00296 4.11 0.00456 1.44 0.00956 2.88 0.015 4.32 0.0136 3.98 0.021 7.95 0.0274 11.9 0.00798 4.28 0.0217 8.56 0.0347 12.8 0.0218 7.42 0.0399 14.8 0.0556 22.3 0.0227 10.7 0.0508 21.5 0.0803 32.2 0.0477 17.4 0.091 34.8 0.131 52.2 0.0393 16.9 0.0808 33.8 0.125 50.8 0.00272 1.04 0.00545 2.08 0.00826 3.16 0.0137 5.23 0.0274 10.5 0.0411 15.7 0.114 43.4 0.221 86.8 0.323 130-52.5 0.0171-105 0.033-158 0.0423-0.777 1.38e-4 -1.55 2.76e-4 -2.35 4.18e-4 -16.9 0.00299-33.8 0.00576-50.6 0.0083-8.28 0.00125-16.6 0.00254-24.8 0.00387-0.824 1.31e-4 -1.65 2.62e-4 -2.5 3.96e-4 -26.7 0.00427-53.4 0.0118-80.2 0.021-27.4 0.00942-54.9 0.0156-82.3 0.0176-3.87 2.88e-4 -7.74 6.14e-4 -11.6 9.62e-4 -0.762 6.74e-5 -1.52 1.35e-4 -2.31 2.04e-4 -12.3 0.00118-24.6 0.00583-36.9 0.0118-12.3 0.00587-24.7 0.00814-37 0.00667-6.69-6.96e-4 -13.4 3.78e-4 -20.1 0.0057-6.12 0.00483-12.2 0.00513-18.4 0.00169-2.22-4.26e-4 -4.45 8.72e-4 -6.67 0.00398-3 0.00396-6 0.00188-9-0.00184-0.881 0.00263-1.76 0.00525-2.67 0.00796-5.94-0.0169-5.94-0.0169-7.06-1.13-0.0994-1.84-0.127-3.69-0.129-5.54-0.00322-1.21-0.00645-2.42-0.00977-3.67 0.00147-1.36 0.00304-2.72 0.00469-4.08-0.00187-1.43-0.00417-2.86-0.00687-4.29-0.00615-3.95-0.00598-7.9-0.00481-11.9 2.03e-4 -4.25-0.00531-8.51-0.0101-12.8-0.00832-8.34-0.0111-16.7-0.0116-25-4.74e-4 -6.77-0.00252-13.5-0.0057-20.3-0.00881-19.2-0.0134-38.4-0.0127-57.6 4e-5 -1.04 7.99e-5 -2.07 1.21e-4 -3.14 4.09e-5 -1.04 8.18e-5 -2.07 1.24e-4 -3.14 4.07e-4 -16.8-0.00917-33.6-0.0233-50.4-0.0143-17.2-0.0213-34.5-0.0204-51.7 3.33e-4 -9.69-0.00245-19.4-0.0132-29.1-0.00908-8.25-0.0113-16.5-0.00449-24.7 0.00328-4.21 0.00327-8.42-0.00535-12.6-0.0078-3.85-0.0065-7.7 0.00228-11.5 0.00155-1.4-3.31e-4 -2.8-0.00586-4.19-0.00698-1.89-6.14e-4 -3.78 0.00656-5.67-2.17e-4 -1.05-4.35e-4 -2.11-6.59e-4 -3.19 0.319-3.16 1.07-4.33 4.31-4.72z" fill="#FBFDFD"/>
<path transform="translate(629 974)" d="m0 0c1.34 3.17e-4 2.69 0.0116 4.03 0.0317 0.707 0.00283 1.41 0.00566 2.14 0.00858 2.26 0.0112 4.52 0.0363 6.79 0.0617 1.53 0.01 3.07 0.0192 4.6 0.0273 3.76 0.0221 7.52 0.0566 11.3 0.0977 2.02 3.98 4.01 7.96 5.82 12 15.8 35.5 46.3 62.7 82.2 77 27.3 10 58.6 13.1 87 6 1.21-0.267 2.43-0.534 3.68-0.809 19.4-4.6 38-13.5 53.3-26.2 0.786-0.603 1.57-1.21 2.38-1.83 10.2-7.84 18.9-16.9 26.6-27.2 0.839-1.1 0.839-1.1 1.7-2.21 7.54-10.3 14.5-22.1 18.6-34.1 0.719-1.65 0.719-1.65 2.72-2.65 2.32-0.0859 4.65-0.107 6.98-0.0977 0.685 0.00141 1.37 0.00283 2.08 0.00429 2.19 0.0056 4.38 0.0182 6.57 0.0309 1.48 0.00501 2.97 0.00958 4.45 0.0137 3.64 0.011 7.28 0.0283 10.9 0.0488 1.37 2.74 1.12 4.91 1.12 7.97 0.00206 1.91 0.00206 1.91 0.00417 3.86-0.00354 1.42-0.00717 2.84-0.0109 4.26-2.82e-4 1.49-1.24e-4 2.98 4.43e-4 4.46 2.88e-4 4.05-0.0056 8.09-0.0126 12.1-0.00624 4.23-0.00684 8.45-0.00803 12.7-0.00311 8.01-0.0113 16-0.0213 24-0.0112 9.11-0.0167 18.2-0.0217 27.3-0.0105 18.8-0.0281 37.5-0.0503 56.3-1.08 0.331-2.17 0.661-3.28 1-1.44 0.445-2.89 0.89-4.33 1.33-0.711 0.217-1.42 0.433-2.15 0.656-6.27 1.94-12.2 4.43-18 7.32-1.48 0.72-1.48 0.72-2.99 1.45-7.01 3.48-13.2 7.2-19.2 12.2-0.927 0.73-1.85 1.46-2.81 2.21-2.78 2.21-5.5 4.48-8.19 6.79-0.675 0.566-1.35 1.13-2.05 1.71-15.8 14.4-27.5 38.3-32.3 58.8-0.684 2.45-0.684 2.45-2.68 4.45-2.63 0.252-2.63 0.252-6.03 0.254-1.29 0.00564-2.57 0.0113-3.9 0.0171-1.43-0.00389-2.87-0.00799-4.3-0.0123-1.5 0.00271-3.01 0.00627-4.51 0.0106-4.09 0.00914-8.18 0.00557-12.3-7.58e-4 -4.27-0.00505-8.55-3.71e-4 -12.8 0.00277-7.18 0.00364-14.4-0.00117-21.5-0.0107-8.3-0.0109-16.6-0.00736-24.9 0.00365-7.12 0.00907-14.2 0.0104-21.4 0.00512-4.26-0.00312-8.51-0.00352-12.8 0.00307-4 0.00577-8.01 0.00178-12-0.00979-1.47-0.00265-2.94-0.00188-4.41 0.00253-2 0.00545-4.01-0.00259-6.01-0.0114-1.12-7.54e-4 -2.25-0.00151-3.4-0.00229-2.75-0.252-2.75-0.252-5.75-2.25-0.764-1.81-0.764-1.81-1.32-4.01-0.22-0.814-0.439-1.63-0.666-2.47-0.345-1.31-0.345-1.31-0.698-2.65-6.41-22.7-19.8-44-37.3-59.9-0.896-0.811-1.79-1.62-2.71-2.46-13.2-11-29.8-18.2-46.3-22.5-5.83-1.83-5.83-1.83-7-3-1.42-12-1.16-24.1-1.12-36.2 0.00233-1.55 0.00233-1.55 0.0047-3.14 0.0151-8.89 0.0626-17.8 0.12-26.7 0.00532-0.825 0.0106-1.65 0.0161-2.5 0.0802-12.3 0.182-24.5 0.303-36.8 0.038-3.86 0.0717-7.71 0.102-11.6 0.0364-4.59 0.0827-9.19 0.137-13.8 0.0186-1.72 0.0338-3.43 0.0454-5.15 0.0167-2.36 0.0457-4.72 0.0778-7.09 0.00216-0.698 0.00432-1.4 0.00654-2.12 0.0839-4.78 0.233-6.86 5.48-7.24z" fill="#FBFDFD"/>
<path transform="translate(1098,324)" d="m0 0c1.2 2.4 1.12 3.87 1.11 6.54-7.55e-5 0.941-1.51e-4 1.88-2.29e-4 2.85-0.00516 1.02-0.0103 2.04-0.0156 3.08-0.00212 1.56-0.00212 1.56-0.00429 3.15-0.00561 3.33-0.0182 6.66-0.0309 10-0.00501 2.26-0.00958 4.51-0.0137 6.77-0.011 5.54-0.0278 11.1-0.0488 16.6 0.655 0.0794 1.31 0.159 1.99 0.241 3.01 0.368 6.01 0.745 9.02 1.12 1.55 0.187 1.55 0.187 3.12 0.378 23.6 2.99 46.5 15 61.9 33.3 14.4 19.4 23 40.6 23 65-23.3 0.495-23.3 0.495-47 1-1.49-3.72-2.59-7.11-3.62-10.9-4.11-13.4-11.6-26.2-24.3-32.9-4.87-2.21-9.89-3.78-15.1-5.12-0.594-0.174-1.19-0.348-1.8-0.527-2.58-0.556-4.96-0.608-7.6-0.618-1.08-0.00638-2.16-0.0128-3.28-0.0193-1.75-0.00167-1.75-0.00167-3.54-0.00337-1.21-0.00333-2.42-0.00666-3.66-0.0101-2.56-0.00506-5.12-0.00741-7.69-0.00725-3.89-0.00217-7.78-0.0203-11.7-0.0393-2.49-0.00294-4.99-0.00492-7.48-0.00586-1.73-0.0108-1.73-0.0108-3.49-0.0218-17.1 0.0475-31.1 3.71-43.6 15.9-9.75 10.6-15.6 23.6-15.5 38.1 0.997 12 7.51 24.6 16.3 32.8 8.98 7.01 19.1 12.6 30.6 12.7 0.658 0.00669 1.32 0.0134 1.99 0.0203 1.42 0.014 2.85 0.0259 4.27 0.0359 2.26 0.0165 4.53 0.0397 6.79 0.0649 6.43 0.0705 12.9 0.131 19.3 0.182 3.94 0.032 7.88 0.0734 11.8 0.12 1.49 0.0159 2.99 0.0283 4.48 0.0369 8.1 0.0475 15.8 0.351 23.7 2.37 1.27 0.295 2.53 0.59 3.84 0.895 27.5 7.12 47.7 20.9 62.4 45.2 5.2 8.92 9.29 17.8 11.7 27.9 0.223 0.816 0.446 1.63 0.676 2.47 3.28 14.1 2.14 30.4-0.676 44.5-0.171 0.963-0.343 1.93-0.52 2.92-2.84 13.6-9.65 26.5-18.5 37.1-0.811 0.985-1.62 1.97-2.46 2.98-20 23.5-47 30.6-76.5 36v47c-2.37 1.18-3.8 1.13-6.43 1.13-0.918 0.00315-1.84 0.0063-2.78 0.00955-0.993-0.00202-1.99-0.00405-3.01-0.00613-1.52 0.00144-1.52 0.00144-3.08 0.0029-2.15 6.81e-4 -4.3-0.00117-6.45-0.00534-3.3-0.00535-6.61-5.02e-5 -9.91 0.00635-2.08-6.61e-4 -4.17-0.00194-6.25-0.00391-0.995 0.00202-1.99 0.00405-3.01 0.00613-0.914-0.00315-1.83-0.0063-2.77-0.00955-0.809-7.96e-4 -1.62-0.00159-2.45-0.00241-1.85-0.127-1.85-0.127-2.85-1.13-0.0877-1.4-0.107-2.81-0.0977-4.21 0.0033-0.894 0.00661-1.79 0.01-2.71 0.0083-0.973 0.0166-1.95 0.0251-2.95 0.00568-1.49 0.00568-1.49 0.0115-3.01 0.0164-4.27 0.0445-8.53 0.0715-12.8 0.018-3.11 0.0302-6.21 0.042-9.32 0.0083-0.971 0.0166-1.94 0.0251-2.94 0.0033-0.898 0.00661-1.8 0.01-2.72 0.00786-1.19 0.00786-1.19 0.0159-2.4 0.00973-2.02 0.00973-2.02-1.11-3.94-2.69-0.864-2.69-0.864-5.98-1.55-1.87-0.43-1.87-0.43-3.78-0.869-2.61-0.587-5.22-1.17-7.84-1.75-11.6-2.67-22.6-6.06-32.6-12.6-1.01-0.648-1.01-0.648-2.04-1.31-5.55-3.62-10.8-7.49-15.8-11.9-0.682-0.588-1.36-1.18-2.07-1.78-17.2-15.9-27.7-42.2-29.1-65 0.168-2.22 0.168-2.22 2.17-4.22 5.68-0.98 11.3-1.16 17-1.17 0.827-0.00333 1.65-0.00666 2.51-0.0101 1.73-0.00503 3.47-0.00741 5.2-0.00725 2.66-0.00221 5.32-0.0205 7.98-0.0393 1.69-0.00293 3.38-0.00492 5.07-0.00586 0.796-0.00719 1.59-0.0144 2.41-0.0218 5.59 0.0234 5.59 0.0234 7.82 2.25 0.265 1.7 0.462 3.41 0.625 5.12 2.07 13.4 9.17 24.8 20 32.8 5.86 3.99 11.5 6.54 18.4 8.08 0.756 0.172 1.51 0.345 2.29 0.523 2.84 0.501 5.48 0.611 8.36 0.623 1.11 0.00638 2.22 0.0128 3.37 0.0193 1.2 0.00111 2.39 0.00223 3.62 0.00337 1.24 0.00333 2.49 0.00666 3.77 0.0101 2.64 0.00506 5.28 0.00784 7.91 0.00725 3.99-1.2e-4 7.98 0.0203 12 0.0393 30 0.608 30 0.608 55.5-13.7 7.73-8.82 13.2-18.3 13.9-30.2 0.0402-0.706 0.0804-1.41 0.122-2.14 0.689-15.8-6.06-28.9-16.6-40.4-11-10.5-24.2-12-38.7-12.1-1.95-0.0224-3.9-0.0447-5.85-0.0677-3.4-0.0375-6.81-0.0626-10.2-0.0886-39.3-0.303-71.5-3.18-101-31.5-16.2-16.8-26.2-39.8-27.6-63-0.0425-0.694-0.0851-1.39-0.129-2.1-0.738-25.5 9.66-53.2 27.1-71.9 17.9-17.2 43.2-32.2 68.8-32 0.98 0.00564 1.96 0.0113 2.97 0.0171 1.11 0.0109 1.11 0.0109 2.25 0.022-0.108-1.95-0.108-1.95-0.219-3.93-0.556-10.6-0.907-21.2-0.969-31.8-0.0193-1.63-0.0193-1.63-0.0391-3.3-0.00129-1.01-0.00258-2.02-0.00391-3.06-0.00411-0.897-0.00822-1.79-0.0125-2.72 0.243-2.17 0.243-2.17 2.24-4.17 2.71-0.319 2.71-0.319 6.16-0.414 1.26-0.0388 2.52-0.0775 3.82-0.117 1.36-0.0315 2.72-0.0627 4.08-0.0935 1.37-0.0378 2.74-0.0761 4.11-0.115 9.61-0.261 19.2-0.387 28.8-0.26z" fill="#000002"/>
<path transform="translate(536 324)" d="m0 0c1.05-0.00467 2.1-0.00935 3.18-0.0142 1.45 0.00314 1.45 0.00314 2.93 0.00635 1.29 0.00169 1.29 0.00169 2.61 0.00342 1.97 0.129 1.97 0.129 2.97 1.13 0.0878 1.43 0.107 2.87 0.0977 4.3-0.00495 1.37-0.00495 1.37-0.01 2.77-0.0083 0.995-0.0166 1.99-0.0251 3.01-0.00568 1.52-0.00568 1.52-0.0115 3.08-0.0164 4.36-0.0445 8.72-0.0715 13.1-0.018 3.18-0.0302 6.35-0.042 9.53-0.0083 0.993-0.0166 1.99-0.0251 3.01-0.00495 1.38-0.00495 1.38-0.01 2.78-0.00524 0.81-0.0105 1.62-0.0159 2.45-0.013 2.06-0.013 2.06 1.11 3.98 1.93 0.465 1.93 0.465 4.28 0.641 0.897 0.0976 1.79 0.195 2.72 0.296 0.971 0.103 1.94 0.207 2.94 0.313 25.9 3.17 50.1 14.4 66.7 35 14.6 19.2 22.4 39.7 22.4 63.8h-48c-2-6-2-6-2.82-9.04-2.19-7.98-5.27-14.3-10.2-21-0.547-0.742-1.09-1.49-1.66-2.25-7.47-9.31-18.8-14.3-30.3-16.8-1.82-0.1-3.64-0.148-5.46-0.161-1.1-0.00961-2.19-0.0192-3.32-0.0291-1.18-0.00425-2.36-0.0085-3.58-0.0129-1.84-0.00855-1.84-0.00855-3.72-0.0173-2.6-0.00945-5.2-0.016-7.8-0.0198-3.94-0.00964-7.88-0.0406-11.8-0.0723-2.53-0.00654-5.07-0.0118-7.6-0.0156-1.16-0.0123-2.32-0.0247-3.52-0.0374-16.1 0.0428-32.5 3.92-44.4 15.4-9.17 10.6-15.2 23.9-15 37.9 1.21 13.3 7.73 25 17.3 34.1 9.27 7.58 18.5 12.1 30.5 12.2 1.3 0.0135 2.6 0.027 3.95 0.0409 0.692 0.00506 1.38 0.0101 2.1 0.0153 2.18 0.0165 4.37 0.0398 6.55 0.0649 6.21 0.0704 12.4 0.131 18.6 0.182 3.81 0.0321 7.61 0.0735 11.4 0.12 1.44 0.0158 2.88 0.0282 4.32 0.0369 25.1 0.153 48.8 6.41 68.5 22.4 0.856 0.666 1.71 1.33 2.59 2.02 18.6 15.3 31.1 41.4 33.4 65 1.92 29.3-4.71 55.7-24.4 78.1-1.53 1.64-3.07 3.26-4.62 4.88-0.641 0.666-1.28 1.33-1.94 2.02-16.8 16.1-44.7 28-68.1 28-0.33 15.8-0.66 31.7-1 48-11.3 0.0619-11.3 0.0619-22.8 0.125-2.37 0.0182-4.75 0.0364-7.19 0.0552-1.88 0.00584-3.76 0.0109-5.64 0.0151-0.978 0.0102-1.96 0.0205-2.96 0.031-0.934 2.42e-4 -1.87 4.83e-4 -2.83 7.32e-4 -0.811 0.00444-1.62 0.00888-2.46 0.0135-2.11-0.241-2.11-0.241-5.11-2.24-0.354-1.9-0.354-1.9-0.325-4.23 0.00345-0.874 0.00691-1.75 0.0105-2.65 0.0186-0.946 0.0372-1.89 0.0564-2.87 0.00992-1.45 0.00992-1.45 0.0201-2.94 0.0235-3.1 0.0672-6.21 0.113-9.31 0.035-3.1 0.0658-6.21 0.0913-9.31 0.017-1.93 0.0402-3.87 0.07-5.8 0.0146-1.31 0.0146-1.31 0.0296-2.65 0.0169-1.16 0.0169-1.16 0.0341-2.34 0.0219-1.99 0.0219-1.99-1.1-3.9-2.27-0.767-2.27-0.767-5.04-1.33-1.05-0.238-2.1-0.476-3.18-0.721-1.13-0.25-2.25-0.501-3.41-0.759-21.5-5.04-39.7-12.2-56.4-27.2-0.668-0.575-1.34-1.15-2.02-1.74-17.5-16.1-27.2-41.5-29.3-64.7 0.312-2.55 0.312-2.55 1.55-4.18 2.23-1.73 3.43-1.73 6.23-1.7 0.901 2.27e-4 1.8 4.53e-4 2.73 6.87e-4 1.45 0.0232 1.45 0.0232 2.94 0.0469 0.995 0.00424 1.99 0.00849 3.01 0.0129 3.18 0.0168 6.36 0.0545 9.54 0.0926 2.15 0.015 4.31 0.0287 6.46 0.041 5.28 0.0331 10.6 0.0833 15.8 0.146 0.335 1.16 0.67 2.33 1.01 3.53 0.448 1.54 0.896 3.09 1.34 4.63 0.22 0.765 0.439 1.53 0.666 2.32 4.27 14.7 12.4 25.9 26 33.5 7.18 3.17 14 5.12 21.9 5.15 1.16 0.00638 2.31 0.0128 3.5 0.0193 1.24 0.00111 2.49 0.00223 3.77 0.00337 1.29 0.00333 2.58 0.00666 3.91 0.0101 2.74 0.00598 5.47 0.00784 8.21 0.00725 3.47-1.01e-4 6.93 0.0135 10.4 0.0308 3.35 0.014 6.7 0.0132 10 0.0144 1.84 0.0108 1.84 0.0108 3.71 0.0218 16.7-0.0433 31.1-2.1 43.6-14 3.66-4.07 6.45-8.44 9.03-13.3 0.436-0.807 0.871-1.61 1.32-2.45 4.51-10.1 4.58-24.2 1.12-34.6-6.03-13.5-15.3-26.2-29.4-31.7-7.34-2.48-14.2-2.67-21.9-2.67-2.02-0.0202-4.03-0.0404-6.05-0.0612-2.81-0.0255-5.61-0.0381-8.42-0.0504-40-0.18-73.5-2.17-104-31.6-20.3-20.9-27.4-46.3-27.1-74.7 0.387-14.6 4.8-27.1 11.3-40.1 0.299-0.61 0.598-1.22 0.906-1.85 11.8-23.7 34.1-39.6 58.8-48 8.13-2.54 15.9-4.17 24.4-4.14 1.35 0.00354 1.35 0.00354 2.73 0.00716 0.686 0.00304 1.37 0.00607 2.08 0.0092-0.017-0.584-0.0339-1.17-0.0514-1.77-0.174-6.07-0.334-12.1-0.486-18.2-0.0585-2.27-0.121-4.53-0.187-6.8-0.0939-3.25-0.175-6.5-0.253-9.75-0.0322-1.02-0.0644-2.04-0.0976-3.08-0.0202-0.941-0.0403-1.88-0.0611-2.85-0.0333-1.25-0.0333-1.25-0.0673-2.52 0.203-2.02 0.203-2.02 2.2-4.02 1.87-0.319 1.87-0.319 4.16-0.414 0.864-0.0388 1.73-0.0777 2.62-0.118 1.41-0.0462 1.41-0.0462 2.84-0.0933 0.963-0.0372 1.93-0.0744 2.92-0.113 7.59-0.265 15.2-0.363 22.8-0.387z" fill="#000002"/>
<path transform="translate(1129 974)" d="m0 0c1.88 0.0088 1.88 0.0088 3.79 0.0178 0.691-0.00219 1.38-0.00438 2.09-0.00664 2.28-0.00231 4.57 0.0239 6.85 0.0508 1.59 0.00492 3.17 0.00822 4.76 0.00996 3.32 0.00764 6.64 0.0282 9.96 0.0591 4.27 0.0396 8.53 0.0576 12.8 0.0673 4.06 0.00995 8.12 0.0299 12.2 0.0511 0.779 0.0034 1.56 0.00679 2.36 0.0103 2.19 0.0115 4.39 0.03 6.58 0.051 1.88 0.0148 1.88 0.0148 3.79 0.0298 2.8 0.147 2.8 0.147 3.8 1.15-0.472 7.38-2.18 14.3-4.12 21.4-0.312 1.14-0.624 2.29-0.946 3.46-8.58 30.8-23.2 58.7-43.9 83.2-1.46 1.81-2.92 3.62-4.38 5.44-3.39 4.13-6.86 8.16-10.4 12.1-0.684 0.769-0.684 0.769-1.38 1.55-2.39 2.62-4.48 4.57-7.81 5.88v-3h-2c-0.0701-16.5-0.123-33-0.155-49.5-0.0155-7.66-0.0366-15.3-0.0709-23-0.0299-6.67-0.0493-13.3-0.0559-20-0.00391-3.53-0.0131-7.07-0.0349-10.6-0.0241-3.94-0.0248-7.89-0.0234-11.8-0.0108-1.17-0.0216-2.35-0.0327-3.56 0.00412-1.07 0.00825-2.15 0.0125-3.25-0.00277-0.933-0.00553-1.87-0.00838-2.83 0.643-4.31 2.1-6.27 6.42-6.96z" fill="#FBFDFD"/>
<path transform="translate(405 974)" d="m0 0c1.26 0.00222 2.52 0.00444 3.82 0.00673 0.693-1.46e-4 1.39-2.92e-4 2.1-4.43e-4 2.3 6.99e-4 4.6 0.00849 6.9 0.0163 1.59 0.00186 3.18 0.00329 4.77 0.00429 4.19 0.00383 8.39 0.0137 12.6 0.0247 4.28 0.0102 8.55 0.0148 12.8 0.0198 8.4 0.0107 16.8 0.0278 25.2 0.0488 1.93 3.25 2.25 5.66 2.24 9.42 0.00275 1.1 0.0055 2.2 0.00833 3.33-0.0108 1.8-0.0108 1.8-0.0218 3.64 2.92e-4 1.27 5.84e-4 2.54 8.85e-4 3.84 5.74e-4 3.47-0.0112 6.95-0.0251 10.4-0.0125 3.63-0.0137 7.27-0.0161 10.9-0.00622 6.88-0.0226 13.8-0.0427 20.6-0.0224 7.83-0.0334 15.7-0.0434 23.5-0.0209 16.1-0.0561 32.2-0.101 48.3-6.62-4.37-6.62-4.37-9.11-6.85-0.521-0.517-1.04-1.03-1.58-1.57-0.535-0.544-1.07-1.09-1.62-1.65-0.568-0.574-1.14-1.15-1.72-1.74-5.01-5.13-9.57-10.5-14-16.2-0.822-1.03-1.64-2.06-2.49-3.12-5.78-7.29-10.8-14.8-15.5-22.9-0.354-0.596-0.708-1.19-1.07-1.81-11-18.5-18.4-37.4-24.1-58.1-0.571-2.06-1.17-4.12-1.78-6.17-0.285-0.963-0.569-1.93-0.862-2.92-0.257-0.846-0.515-1.69-0.78-2.56-0.493-2.79-0.2-4.73 0.569-7.44 1-1 1-1 3.82-1.12z" fill="#FBFDFD"/>
<path transform="translate(884,973)" d="m0 0c1.17 4.7 1.17 4.7-0.379 7.4-20.7 24.1-42.9 40.8-75.6 43.6-28.7 1.61-51.4-6.23-74-24-0.688-0.532-1.38-1.06-2.09-1.61-1.35-1.07-2.64-2.22-3.91-3.39v-2h-2c-1.52-1.5-1.52-1.5-3.25-3.56-0.615-0.723-1.23-1.45-1.86-2.19-0.623-0.741-1.25-1.48-1.89-2.25-1.14-1.33-2.29-2.67-3.44-4-0.846-0.99-1.69-1.98-2.56-3 0.66-1.32 1.32-2.64 2-4 17-0.132 34-0.262 51-0.391 7.9-0.0598 15.8-0.12 23.7-0.182 6.91-0.0537 13.8-0.106 20.7-0.158 3.64-0.0273 7.28-0.055 10.9-0.0838 20.9-0.165 41.7-0.213 62.6-0.185z" fill="#FBFDFD"/>
</svg>