<svg version="1.1" viewBox="0 0 1600 1600" width="1280" height="1280" xmlns="http://www.w3.org/2000/svg">
<path transform="translate(0)" d="m0 0h1600v1600h-1600v-1600z" fill="#FAFDFF"/>
<path transform="translate(347 103)" d="m0 0c0.805 0.00562 1.61 0.0112 2.44 0.017 0.847-0.0019 1.69-0.0038 2.57-0.00575 2.81-0.00371 5.62 7e-3 8.43 0.0182 1.95 0.00119 3.89 0.00165 5.84 0.00139 4.08 0.00157 8.16 0.00986 12.2 0.0233 5.24 0.017 10.5 0.0208 15.7 0.0201 4.02 2.71e-4 8.03 0.00575 12.1 0.013 1.93 0.00319 3.87 0.00516 5.8 0.00589 2.7 0.00216 5.39 0.0109 8.09 0.0216 0.807-4.53e-4 1.61-9.06e-4 2.44-0.00137 5.51 0.0322 5.51 0.0322 6.62 1.15v100h554v-99c2.58-2.58 4.31-2.24 7.82-2.26 1.22 0.00843 1.22 0.00843 2.47 0.017 0.857-0.0019 1.71-0.0038 2.6-0.00575 2.84-0.00371 5.68 7e-3 8.52 0.0182 1.97 0.00119 3.94 0.00165 5.9 0.00139 4.13 0.00157 8.25 0.00986 12.4 0.0233 5.3 0.017 10.6 0.0208 15.9 0.0201 4.06 2.71e-4 8.13 0.00575 12.2 0.013 1.96 0.00319 3.91 0.00516 5.87 0.00589 2.73 0.00216 5.45 0.0109 8.18 0.0216 0.816-4.53e-4 1.63-9.06e-4 2.47-0.00137 5.57 0.0322 5.57 0.0322 6.69 1.15 0.125 3.07 0.186 6.13 0.205 9.2 0.0099 0.966 0.0198 1.93 0.03 2.93 0.0317 3.21 0.0564 6.42 0.0811 9.63 0.0206 2.22 0.0416 4.44 0.063 6.65 0.0553 5.85 0.105 11.7 0.153 17.6 0.0501 5.97 0.106 11.9 0.161 17.9 0.108 11.7 0.209 23.4 0.307 35.1 3.38 1.69 7.23 1.14 10.9 1.14 0.929 0.00347 1.86 0.00695 2.82 0.0105 2.03 0.00737 4.05 0.0127 6.08 0.0163 3.23 0.00718 6.46 0.0229 9.69 0.0413 9.18 0.0523 18.4 0.1 27.5 0.116 5.62 0.0102 11.2 0.0399 16.9 0.0813 2.12 0.0121 4.24 0.0175 6.37 0.0152 37.9-0.0304 74.4 9.94 104 34.6 0.51 0.42 1.02 0.84 1.55 1.27 8.66 7.19 15.2 15.4 21.5 24.7 0.403 0.603 0.807 1.21 1.22 1.83 8.76 13.3 15 27.6 18.7 43.1 0.287 1.21 0.287 1.21 0.579 2.45 4.24 19.8 3.86 40.1 3.86 60.3 0.00374 4.24 0.0189 8.49 0.0326 12.7 0.0221 7.33 0.0372 14.7 0.0474 22 0.0147 10.6 0.0402 21.2 0.0683 31.8 0.0453 17.2 0.082 34.4 0.113 51.6 0.0302 16.7 0.0646 33.4 0.104 50.1 0.00246 1.03 0.00492 2.06 0.00746 3.12 0.0124 5.17 0.0248 10.3 0.0373 15.5 0.103 42.8 0.193 85.7 0.273 129-5.39-0.606-9.5-1.4-14.5-3.62-22.3-9.43-46.6-14.5-70.5-17.4-0.75-0.0905-1.5-0.181-2.27-0.274-8.85-0.935-17.7-0.863-26.6-0.849-1.82-7.4e-4 -3.63-0.00192-5.45-0.0035-4.99-0.00306-9.98 1.01e-4 -15 0.00428-5.43 0.00344-10.9 0.00106-16.3-5.77e-4 -9.51-0.00207-19-4.31e-4 -28.5 0.00364-14.1 0.00603-28.3 0.00634-42.4 0.00546-23.8-0.00131-47.6 0.00202-71.4 0.00802-23.6 0.00592-47.1 0.00978-70.7 0.0109-1.1 5.16e-5 -1.1 5.16e-5 -2.22 1.04e-4 -6.69 3.13e-4 -13.4 6.01e-4 -20.1 8.58e-4 -16.6 6.39e-4 -33.2 0.0016-49.9 0.00278-1.14 8e-5 -1.14 8e-5 -2.29 1.62e-4 -36.8 0.00262-73.6 0.00893-110 0.0155-12.8 0.00229-25.5 0.00457-38.3 0.00677-0.792 1.37e-4 -1.58 2.74e-4 -2.4 4.15e-4 -36.8 0.00634-73.6 0.0101-110 0.0131-2.39 1.98e-4 -4.78 3.97e-4 -7.17 5.97e-4 -15.8 0.00132-31.7 0.00259-47.5 0.00384-31.5 0.00248-63.1 0.00522-94.6 0.00814-1.5 1.39e-4 -3 2.78e-4 -4.5 4.17e-4 -82.2 0.0076-164 0.0199-300 0.0421-0.0342 52.4-0.0661 105-0.0847 157-4.14e-4 1.16-4.14e-4 1.16-8.37e-4 2.35-0.00599 16.9-0.0115 33.7-0.0166 50.6-0.00249 8.27-0.00509 16.5-0.00773 24.8-3.92e-4 1.24-3.92e-4 1.24-7.92e-4 2.5-0.00852 26.7-0.0235 53.4-0.0419 80-0.0189 27.4-0.0312 54.8-0.0352 82.3-5.76e-4 3.87-0.00123 7.75-0.00192 11.6-1.35e-4 0.763-2.7e-4 1.53-4.09e-4 2.31-0.00236 12.3-0.0116 24.5-0.0235 36.8-0.0118 12.3-0.0163 24.7-0.0133 37 0.00139 6.68-6.9e-4 13.4-0.0114 20-0.00975 6.12-0.0102 12.2-0.00339 18.4 8.44e-4 2.21-0.00168 4.42-0.00797 6.63-0.219 27.8-0.219 27.8 13.2 51.3 3.2 2.86 6.54 5.46 10 8 0.581 0.446 1.16 0.892 1.76 1.35 5.01 3.65 10.2 3.77 16.3 3.78 1.19 0.00486 2.38 0.00972 3.61 0.0147 1.3 2.96e-4 2.6 5.92e-4 3.94 8.97e-4 1.4 0.00385 2.81 0.00814 4.21 0.0128 3.86 0.0116 7.71 0.0171 11.6 0.0216 4.17 0.00596 8.34 0.0176 12.5 0.0286 7.25 0.0184 14.5 0.0332 21.7 0.0458 10.6 0.0185 21.2 0.0431 31.8 0.0694 17.4 0.0429 34.8 0.0819 52.2 0.118 1.04 0.00216 2.08 0.00433 3.16 0.00655 4.21 0.00873 8.42 0.0175 12.6 0.0262 35.4 0.0733 70.8 0.151 106 0.238 0.984 0.00241 1.97 0.00483 2.98 0.00732 50.7 0.125 101 0.291 152 0.712 3.58 0.0297 7.16 0.0587 10.7 0.0877 11.8 0.0971 23.6 0.216 35.4 0.365 6.68 0.0808 13.4 0.13 20 0.158 5.52 0.0244 11 0.0666 16.5 0.12 3.34 0.0316 6.69 0.0518 10 0.0561 3.69 0.00589 7.39 0.0423 11.1 0.0859 1.11-0.00562 2.22-0.0112 3.36-0.017 2.76 0.0488 5.3 0.129 8 0.705 2.11 2.33 2.11 2.33 3 5 0.509 1.13 1.02 2.26 1.54 3.43 0.55 1.29 1.1 2.59 1.64 3.89 3.62 8.4 7.57 16.6 11.8 24.7 0.364 0.698 0.729 1.4 1.1 2.12 8.82 16.7 19.2 32.6 31 47.4 1.62 2.14 2.74 4.09 3.89 6.5-91 0.0558-182 0.0884-473-0.326-10.4-0.0363-20.8-0.0675-31.2-0.0959-11.7-0.0321-23.4-0.0717-35.2-0.121-5.89-0.0248-11.8-0.0468-17.7-0.0607-5.34-0.0128-10.7-0.0347-16-0.064-1.92-0.00899-3.84-0.0147-5.75-0.0168-41.1-0.0528-75.8-14.8-105-43.6-10.1-10.1-18-21.8-23.8-34.8-0.801-1.8-1.64-3.58-2.48-5.36-9.76-21.4-11.5-43-11.5-66.2-0.00135-1.52-0.00314-3.04-0.00531-4.56-0.00469-4.15-0.00324-8.3-7.22e-4 -12.4 0.00164-4.53-0.00252-9.05-0.00591-13.6-0.00514-7.92-0.00657-15.8-0.00554-23.8 0.00153-11.8-0.00264-23.6-0.00787-35.3-0.00966-22.3-0.0125-44.5-0.0131-66.8-4.6e-4 -17.2-0.00252-34.4-0.0057-51.6-8.98e-4 -4.95-0.00179-9.91-0.00267-14.9-2.21e-4 -1.23-4.42e-4 -2.46-6.7e-4 -3.73-0.00615-34.6-0.0101-69.3-0.00966-104 1.56e-5 -1.31 3.12e-5 -2.61 4.72e-5 -3.96 8.31e-5 -6.62 1.82e-4 -13.2 2.85e-4 -19.8 1.99e-5 -1.31 3.99e-5 -2.63 6.04e-5 -3.98 4.04e-5 -2.66 8.22e-5 -5.31 1.25e-4 -7.97 6.13e-4 -41.3-0.00689-82.7-0.0206-124-0.0154-46.5-0.024-92.9-0.023-139 7.46e-5 -4.96 1.23e-4 -9.91 1.54e-4 -14.9 1.17e-5 -1.22 2.33e-5 -2.44 3.53e-5 -3.7 3.07e-5 -19.6-0.00635-39.2-0.015-58.9-0.00849-19.7-0.00946-39.4-0.00289-59.2 0.00369-11.7 0.00188-23.4-0.00794-35.1-0.00601-7.83-0.00469-15.7 0.00247-23.5 0.00387-4.46 0.00469-8.91-0.00346-13.4-0.085-49.9-0.085-49.9 7.26-69.9 0.42-1.15 0.84-2.3 1.27-3.49 9.01-22.6 23.8-44.2 42.7-59.5 0.566-0.465 1.13-0.931 1.71-1.41 10-7.88 21.4-15 33.3-19.6 0.593-0.237 1.19-0.473 1.8-0.717 11.5-4.53 23.1-7.2 35.2-9.28 0.919-0.166 1.84-0.333 2.79-0.505 3-0.462 5.87-0.694 8.9-0.808 1.64-0.0622 1.64-0.0622 3.31-0.126 1.17-0.0389 2.35-0.0777 3.55-0.118 1.24-0.0422 2.47-0.0844 3.75-0.128 13.6-0.429 27.3-0.442 40.9-0.413 2.67 0.00187 5.35 0.00334 8.02 0.00429 6.23 0.00306 12.5 0.0112 18.7 0.0213 7.11 0.0113 14.2 0.0167 21.3 0.0217 14.6 0.0103 29.2 0.0278 43.8 0.0503-0.00444-1.24-0.00888-2.47-0.0135-3.74-0.0405-11.6-0.0705-23.3-0.0902-34.9-0.0105-5.98-0.0246-12-0.0473-17.9-0.0217-5.76-0.0337-11.5-0.0389-17.3-0.00371-2.2-0.0109-4.41-0.0217-6.61-0.0144-3.08-0.0165-6.15-0.0156-9.23-0.00719-0.919-0.0144-1.84-0.0218-2.78 0.00275-0.836 0.0055-1.67 0.00833-2.53-0.00277-1.09-0.00277-1.09-0.00559-2.21 0.634-4.61 4.2-4.03 8-4.05z" fill="#000102"/>
<path transform="translate(1150 759)" d="m0 0c1.23-0.00333 2.47-0.00666 3.74-0.0101 2.6-0.00504 5.2-0.00741 7.79-0.00725 3.93-0.00218 7.85-0.0204 11.8-0.0393 12.7-0.0289 25 0.193 37.5 2.22 2.27 0.293 4.54 0.579 6.81 0.859 15.7 2.07 30.9 5.01 46.2 9.14 0.87 0.234 1.74 0.469 2.64 0.71 35.5 9.73 69.6 25.3 100 45.3 0.987 0.632 1.97 1.26 2.99 1.91 13.1 8.53 26 17.7 37.3 28.5 2.08 1.97 4.17 3.84 6.35 5.7 5.03 4.38 9.73 9.09 14.4 13.8 1.51 1.52 3.03 3.03 4.55 4.55 5.34 5.34 10.5 10.8 15.4 16.5 0.493 0.576 0.986 1.15 1.49 1.74 36.7 43.1 64.5 96.9 76.5 152 0.519 2.19 1.04 4.38 1.56 6.56 7.19 31.5 8.85 62.2 8.44 94.4-0.0126 1.03-0.0251 2.06-0.0381 3.12-0.223 13.4-1.95 26.3-4.51 39.5-0.545 2.87-1.01 5.75-1.45 8.64-2.6 15.6-6.4 30.7-11 45.8-0.376 1.26-0.376 1.26-0.76 2.54-9.39 31-24.3 60.5-42.2 87.5-0.468 0.713-0.936 1.43-1.42 2.16-5.9 8.96-12.2 17.3-19.3 25.3-2.08 2.41-4.06 4.9-6.05 7.38-3.02 3.71-6.15 7.15-9.59 10.5-1.72 1.71-3.28 3.5-4.85 5.34-6.67 7.72-14 15-21.8 21.6-2.41 2.08-4.71 4.27-7.03 6.44-16.5 15.1-35.8 26.9-55 38.3-0.655 0.39-1.31 0.781-1.99 1.18-17.8 10.5-36.5 19.1-56 25.8-1.68 0.589-3.36 1.18-5.04 1.77-48.9 17-98.3 21.2-150 18.4-1.04-0.0523-1.04-0.0523-2.1-0.106-10.2-0.53-20-2.04-30-4.08-2.44-0.457-4.88-0.91-7.32-1.36-15.6-2.95-30.7-6.53-45.7-11.6-1.03-0.35-2.06-0.699-3.12-1.06-20.6-7.05-39.8-15.6-58.9-25.9-0.774-0.415-1.55-0.831-2.35-1.26-36.5-19.6-73.5-47.3-99.4-79.9-2.01-2.5-4.08-4.92-6.18-7.34-39.5-45.6-64.1-103-76.9-161l-0.842-3.75c-4.61-21.9-5.83-44-5.68-66.3 0.0238-3.9 0.0205-7.79 0.0139-11.7 0.0199-19.5 1.43-38.1 5.32-57.2 0.223-1.1 0.223-1.1 0.451-2.23 8.89-43.5 24.3-84 47.3-122 0.529-0.875 0.529-0.875 1.07-1.77 4.17-6.87 8.56-13.5 13.3-20 1.92-2.59 3.79-5.21 5.64-7.84 7.16-9.83 15.3-18.9 23.6-27.8 2.49-2.7 4.94-5.42 7.38-8.16 5.35-5.95 10.9-11.5 17-16.7 2.19-1.93 4.33-3.91 6.46-5.91 11.4-10.6 23.9-19.5 36.8-28.1 0.844-0.57 0.844-0.57 1.7-1.15 25.2-16.9 52.6-30.9 81.3-40.8 1.28-0.446 1.28-0.446 2.59-0.9 32.2-11 66.4-19.2 101-19.3z" fill="#FAFDFF"/>
<path transform="translate(297 296)" d="m0 0c4.33 0.056 8.65 0.106 13 0.154 3.36 0.0388 6.72 0.0819 10.1 0.126 1.6 0.0204 3.2 0.0391 4.8 0.0561 2.21 0.0239 4.41 0.054 6.62 0.0856 1.88 0.0233 1.88 0.0233 3.79 0.0471 2.79 0.158 2.79 0.158 3.79 1.16 0.0941 1.74 0.117 3.49 0.114 5.24-7.05e-5 1.14-1.41e-4 2.27-2.14e-4 3.44-0.00775 1.89-0.00775 1.89-0.0157 3.81-0.00224 2.02-0.00448 4.04-0.00671 6.06-0.00338 2.18-0.00923 4.35-0.0158 6.53-0.0135 4.53-0.0194 9.06-0.0241 13.6-0.0121 10.4-0.0341 20.9-0.0562 31.3-0.0202 9.56-0.0382 19.1-0.0482 28.7-5e-3 4.51-0.0149 9.01-0.0284 13.5-0.00565 2.13-0.00903 4.25-0.0114 6.38-0.00288 2.6-0.0094 5.2-0.0201 7.8-7.05e-5 1.14-1.41e-4 2.27-2.14e-4 3.44-0.00222 0.993-0.00444 1.99-0.00673 3.01-0.13 2.2-0.13 2.2 1.12 3.23 2.77 0.125 5.51 0.186 8.28 0.205 0.868 0.0099 1.74 0.0198 2.63 0.03 2.88 0.0317 5.77 0.0564 8.65 0.0811 1.99 0.0206 3.99 0.0416 5.98 0.063 5.26 0.0553 10.5 0.105 15.8 0.153 5.36 0.0502 10.7 0.106 16.1 0.161 10.5 0.108 21.1 0.209 31.6 0.307-0.00277-1.05-0.00277-1.05-0.00559-2.12-0.0441-17-0.0772-34-0.098-51-0.0103-8.22-0.0244-16.4-0.0473-24.7-0.0199-7.16-0.0328-14.3-0.0373-21.5-0.00261-3.79-0.00877-7.59-0.0233-11.4-0.0135-3.57-0.0178-7.13-0.0148-10.7-8.16e-4 -1.94-0.0116-3.88-0.0226-5.82 0.00275-1.15 0.0055-2.29 0.00833-3.48-0.00277-1.5-0.00277-1.5-0.00559-3.03 0.246-2.37 0.246-2.37 2.25-4.37 36.4-4.11 75-1.07 112-1.04 3.7 0.00261 7.39 0.00379 11.1 0.00508 43.1 0.0158 86.1 0.107 129 0.208 3.17 0.0074 6.34 0.0147 9.51 0.0221 19.9 0.0459 39.8 0.0925 59.7 0.141 4.51 0.011 9.02 0.022 13.5 0.033 1.12 0.00273 2.24 0.00546 3.39 0.00827 18.4 0.0447 36.8 0.0852 55.2 0.124 19 0.0404 38.1 0.0845 57.1 0.132 10.6 0.0266 21.3 0.0515 31.9 0.0722 8.98 0.0175 18 0.0383 26.9 0.0636 4.57 0.0128 9.15 0.0239 13.7 0.0308 4.18 0.00628 8.35 0.0171 12.5 0.0316 1.52 0.00446 3.03 0.0072 4.55 0.00813 2.05 0.00149 4.09 0.00962 6.14 0.0182 1.14 0.00266 2.28 0.00532 3.46 0.00805 2.53 0.131 2.53 0.131 3.53 1.13 0.109 1.76 0.147 3.52 0.158 5.28 0.00979 1.15 0.0196 2.29 0.0297 3.47 0.00576 1.27 0.0115 2.54 0.0174 3.84 0.00957 1.34 0.0196 2.68 0.03 4.02 0.0271 3.65 0.0481 7.3 0.068 10.9 0.0218 3.81 0.0492 7.62 0.0761 11.4 0.05 7.22 0.0949 14.4 0.138 21.7 0.0585 9.75 0.125 19.5 0.191 29.2 0.104 15.4 0.197 30.7 0.292 46.1 44.1 0.495 44.1 0.495 89 1-0.0206-13.3-0.0412-26.7-0.0625-40.4-0.00342-7.98-0.00644-16 0.00391-23.9 0.00124-0.96 0.00248-1.92 0.00376-2.91 0.0246-16.5 0.126-33 0.43-49.5 0.0231-1.51 0.0231-1.51 0.0466-3.06 0.044-2.76 0.101-5.52 0.164-8.27 0.0173-1.18 0.0173-1.18 0.035-2.38 0.148-5.24 0.148-5.24 2.38-7.48 2.91-0.199 5.73-0.273 8.65-0.259 0.896-0.0035 1.79-0.00701 2.72-0.0106 2.98-0.00884 5.96-0.00296 8.94 0.00378 2.07-0.00135 4.15-0.00329 6.22-0.0058 4.36-0.00296 8.72 0.00135 13.1 0.0107 5.56 0.0113 11.1 0.00489 16.7-0.00714 4.29-0.00728 8.58-0.0049 12.9 2.56e-4 2.05 0.00132 4.09-2.7e-4 6.14-0.00496 33.8-0.0604 33.8-0.0604 46.3 11.3 11.2 12.1 15.5 24.6 15.5 40.8 8.54e-4 0.962 0.00171 1.92 0.00259 2.92 0.00164 3.21-0.00384 6.42-0.00932 9.63-2.82e-4 2.31-1.23e-4 4.61 4.43e-4 6.92 2.87e-4 6.25-0.00559 12.5-0.0126 18.8-0.00625 6.54-0.00684 13.1-0.00803 19.6-0.00259 11-9e-3 21.9-0.0179 32.9-0.00919 11.3-0.0163 22.6-0.0205 33.9-2.63e-4 0.697-5.25e-4 1.39-7.96e-4 2.11-0.00131 3.5-0.00257 6.99-0.00381 10.5-0.0104 29-0.028 58-0.0503 86.9-86.8 0.0984-174 0.197-298 0.328-1.48 0.00156-2.97 0.00313-4.45 0.00469-31.2 0.0328-62.3 0.0654-93.5 0.0978-15.7 0.0163-31.3 0.0326-47 0.0489-2.36 0.00246-4.72 0.00493-7.08 0.00739-36.4 0.0379-72.7 0.0767-109 0.118-0.781 8.87e-4 -1.56 0.00177-2.37 0.00269-12.6 0.0143-25.2 0.0287-37.8 0.0431-36.3 0.0415-72.6 0.0824-109 0.12-0.747 7.69e-4 -1.49 0.00154-2.26 0.00233-16.4 0.0169-32.8 0.0335-49.2 0.0498-6.6 0.00658-13.2 0.0132-19.8 0.0198-1.08 0.00109-1.08 0.00109-2.19 0.0022-23.2 0.0234-46.5 0.05-69.7 0.0783-24.1 0.0293-48.1 0.055-72.2 0.0765-13.9 0.0125-27.8 0.0279-41.6 0.0473-9.27 0.0127-18.5 0.0217-27.8 0.0277-5.28 0.00353-10.6 0.00865-15.8 0.0183-4.81 0.00874-9.62 0.0127-14.4 0.0131-1.72 9.3e-4 -3.45 0.00354-5.17 0.0081-10.6 0.0269-21.2 0.00114-31.8-1.11-1.87-1.87-1.13-4.57-1.14-7.06 8.66e-4 -0.879 0.00173-1.76 0.00263-2.66-0.00297-0.926-0.00594-1.85-9e-3 -2.81-0.00873-3.13-0.0102-6.26-0.0117-9.39-0.00463-2.23-0.00965-4.47-0.015-6.7-0.0132-6.09-0.0196-12.2-0.024-18.3-0.00293-3.81-0.00703-7.61-0.0115-11.4-0.0121-10.5-0.0225-21.1-0.0259-31.6-2.2e-4 -0.676-4.39e-4 -1.35-6.65e-4 -2.05-2.18e-4 -0.677-4.37e-4 -1.35-6.61e-4 -2.05-4.43e-4 -1.37-8.9e-4 -2.74-0.00134-4.12-2.21e-4 -0.681-4.43e-4 -1.36-6.71e-4 -2.06-0.00394-11-0.0214-22-0.0447-33-0.0238-11.3-0.0359-22.6-0.0373-33.9-0.00105-6.34-0.00691-12.7-0.0248-19-0.0165-5.98-0.0186-12-0.00986-17.9 7.67e-4 -2.19-0.00353-4.37-0.0135-6.56-0.0862-20.2 1.44-36.7 15.9-52.1 9.97-9.39 19.4-13.4 32.9-13.6 0.93-0.0208 1.86-0.0416 2.82-0.063 1.98-0.0432 3.96-0.0843 5.94-0.123 2.93-0.0582 5.86-0.124 8.79-0.191 26-0.567 52-0.273 78 0.0657z" fill="#FAFDFF"/>
<path transform="translate(1150 759)" d="m0 0c1.23-0.00333 2.47-0.00666 3.74-0.0101 2.6-0.00504 5.2-0.00741 7.79-0.00725 3.93-0.00218 7.85-0.0204 11.8-0.0393 12.7-0.0289 25 0.193 37.5 2.22 2.27 0.293 4.54 0.579 6.81 0.859 15.7 2.07 30.9 5.01 46.2 9.14 0.87 0.234 1.74 0.469 2.64 0.71 35.5 9.73 69.6 25.3 100 45.3 0.987 0.632 1.97 1.26 2.99 1.91 13.1 8.53 26 17.7 37.3 28.5 2.08 1.97 4.17 3.84 6.35 5.7 5.03 4.38 9.73 9.09 14.4 13.8 1.51 1.52 3.03 3.03 4.55 4.55 5.34 5.34 10.5 10.8 15.4 16.5 0.493 0.576 0.986 1.15 1.49 1.74 36.7 43.1 64.5 96.9 76.5 152 0.519 2.19 1.04 4.38 1.56 6.56 7.19 31.5 8.85 62.2 8.44 94.4-0.0126 1.03-0.0251 2.06-0.0381 3.12-0.223 13.4-1.95 26.3-4.51 39.5-0.545 2.87-1.01 5.75-1.45 8.64-2.6 15.6-6.4 30.7-11 45.8-0.376 1.26-0.376 1.26-0.76 2.54-9.39 31-24.3 60.5-42.2 87.5-0.468 0.713-0.936 1.43-1.42 2.16-5.9 8.96-12.2 17.3-19.3 25.3-2.08 2.41-4.06 4.9-6.05 7.38-3.02 3.71-6.15 7.15-9.59 10.5-1.72 1.71-3.28 3.5-4.85 5.34-6.67 7.72-14 15-21.8 21.6-2.41 2.08-4.71 4.27-7.03 6.44-16.5 15.1-35.8 26.9-55 38.3-0.655 0.39-1.31 0.781-1.99 1.18-17.8 10.5-36.5 19.1-56 25.8-1.68 0.589-3.36 1.18-5.04 1.77-48.9 17-98.3 21.2-150 18.4-1.04-0.0523-1.04-0.0523-2.1-0.106-10.2-0.53-20-2.04-30-4.08-2.44-0.457-4.88-0.91-7.32-1.36-15.6-2.95-30.7-6.53-45.7-11.6-1.03-0.35-2.06-0.699-3.12-1.06-20.6-7.05-39.8-15.6-58.9-25.9-0.774-0.415-1.55-0.831-2.35-1.26-36.5-19.6-73.5-47.3-99.4-79.9-2.01-2.5-4.08-4.92-6.18-7.34-39.5-45.6-64.1-103-76.9-161l-0.842-3.75c-4.61-21.9-5.83-44-5.68-66.3 0.0238-3.9 0.0205-7.79 0.0139-11.7 0.0199-19.5 1.43-38.1 5.32-57.2 0.223-1.1 0.223-1.1 0.451-2.23 8.89-43.5 24.3-84 47.3-122 0.529-0.875 0.529-0.875 1.07-1.77 4.17-6.87 8.56-13.5 13.3-20 1.92-2.59 3.79-5.21 5.64-7.84 7.16-9.83 15.3-18.9 23.6-27.8 2.49-2.7 4.94-5.42 7.38-8.16 5.35-5.95 10.9-11.5 17-16.7 2.19-1.93 4.33-3.91 6.46-5.91 11.4-10.6 23.9-19.5 36.8-28.1 0.844-0.57 0.844-0.57 1.7-1.15 25.2-16.9 52.6-30.9 81.3-40.8 1.28-0.446 1.28-0.446 2.59-0.9 32.2-11 66.4-19.2 101-19.3zm-107 121c-1.85 0.966-3.71 1.91-5.57 2.84-15.6 7.93-29.8 18.1-43.6 28.8-1.47 1.14-2.96 2.26-4.45 3.37-15.2 11.8-28.6 26.2-39.7 41.9-1.54 2.14-3.13 4.25-4.73 6.35-17.5 23.2-30.2 49.4-39.8 76.8-0.46 1.3-0.46 1.3-0.93 2.62-23.2 66.6-16.4 141 13.7 204 11.6 24 26 45.9 44.2 65.5 1.09 1.27 2.17 2.54 3.25 3.81 9.3 10.6 19.5 19.8 30.8 28.2 0.606 0.456 1.21 0.912 1.84 1.38 56.7 42.6 128 66.5 199 57 3.08-0.442 6.15-0.918 9.21-1.41 1.63-0.257 1.63-0.257 3.29-0.52 22.1-3.58 44-8.86 64.7-17.5 0.996-0.402 0.996-0.402 2.01-0.813 24.6-10 47.2-24 67.5-41.1 1.63-1.36 3.28-2.69 4.95-3.99 13.2-10.3 25.3-22.7 35.5-36.1 0.77-0.964 1.54-1.93 2.33-2.92 22.6-28.4 38.3-60.4 48.7-95.1 0.371-1.23 0.371-1.23 0.75-2.49 13.4-46.3 12.6-98.1 0.25-145-0.197-0.761-0.394-1.52-0.597-2.31-8.84-33.6-25.5-65.1-46.4-92.7-0.78-1.05-1.56-2.09-2.36-3.17-4.82-6.41-9.87-12.5-15.3-18.3-2-2.16-3.91-4.36-5.8-6.61-4.12-4.72-8.77-8.78-13.5-12.9-0.98-0.856-1.96-1.71-2.97-2.59-49.4-42.8-108-64-173-67.4-0.785-0.0429-1.57-0.0857-2.38-0.13-44.6-2.12-91.4 9.48-131 30.1z" fill="#000102"/>
<path transform="translate(1132 942)" d="m0 0c0.867-0.00204 1.73-0.00409 2.63-0.0062 2.87-0.00301 5.74 0.0155 8.6 0.0345 1.99 0.00306 3.98 0.00493 5.97 0.00568 4.17 0.0046 8.34 0.019 12.5 0.0412 5.35 0.0283 10.7 0.0392 16.1 0.0437 4.11 0.00415 8.21 0.014 12.3 0.0259 1.98 0.00571 3.95 0.0105 5.93 0.0143 2.75 0.00684 5.51 0.0205 8.26 0.0363 1.24 0.00168 1.24 0.00168 2.5 0.00339 5.62 0.0431 5.62 0.0431 6.74 1.16 0.108 1.75 0.147 3.5 0.158 5.25 0.00979 1.14 0.0196 2.27 0.0297 3.45 0.00576 1.26 0.0115 2.52 0.0174 3.81 0.0099 1.32 0.0198 2.63 0.03 3.99 0.0271 3.62 0.0481 7.24 0.068 10.9 0.0218 3.78 0.0492 7.56 0.0761 11.3 0.05 7.16 0.0949 14.3 0.138 21.5 0.0493 8.15 0.104 16.3 0.16 24.5 0.114 16.8 0.221 33.6 0.323 50.3 0.695 0.00423 1.39 0.00846 2.11 0.0128 16.9 0.103 33.8 0.212 50.6 0.327 8.16 0.0554 16.3 0.109 24.5 0.158 7.11 0.0428 14.2 0.0891 21.3 0.14 3.77 0.0266 7.54 0.0515 11.3 0.0722 4.2 0.0232 8.4 0.054 12.6 0.0856 1.26 0.00576 2.52 0.0115 3.81 0.0174 1.14 0.00979 2.27 0.0196 3.45 0.0297 1.49 0.00968 1.49 0.00968 3.01 0.0196 2.23 0.139 2.23 0.139 3.23 1.14 0.0952 2.86 0.126 5.7 0.114 8.56 1.46e-4 0.897 2.92e-4 1.79 4.43e-4 2.72-6.99e-4 2.98-0.00849 5.96-0.0163 8.94-0.00186 2.06-0.00329 4.12-0.00429 6.18-0.00383 5.44-0.0137 10.9-0.0247 16.3-0.0102 5.54-0.0148 11.1-0.0198 16.6-0.0107 10.9-0.0278 21.8-0.0488 32.7-6.17 0.776-12.2 1.14-18.4 1.13-1.35 0.00234-1.35 0.00234-2.73 0.00473-2.99 0.00396-5.99 8.39e-4 -8.98-0.00232-2.16 0.00136-4.31 0.00314-6.47 0.00531-5.84 0.00455-11.7 0.0028-17.5-3.79e-4 -6.11-0.00253-12.2-1.83e-4 -18.3 0.00139-10.2 0.00182-20.5-5.75e-4 -30.7-0.00534-11.9-0.00545-23.7-0.00367-35.6 0.00183-10.2 0.00453-20.4 0.00518-30.5 0.00256-6.08-0.00156-12.2-0.00176-18.2 0.00154-5.71 0.00288-11.4 9.03e-4 -17.1-0.00489-2.1-0.00133-4.2-9.34e-4 -6.3 0.00126-2.86 0.00271-5.71-6.72e-4 -8.57-0.00568-0.84 0.00223-1.68 0.00446-2.55 0.00676-5.72-0.0196-5.72-0.0196-7.95-1.13-0.0684-28.9-0.122-57.7-0.153-86.6-0.00375-3.41-0.00764-6.81-0.0116-10.2-0.00118-1.02-0.00118-1.02-0.00238-2.05-0.0131-11-0.0367-22-0.0643-33-0.028-11.3-0.0445-22.5-0.0508-33.8-0.00392-6.33-0.0132-12.7-0.0349-19-0.0203-5.95-0.0267-11.9-0.0221-17.9-8.28e-4 -2.19-0.00683-4.38-0.0183-6.57-0.0148-2.98-0.0114-5.96-0.00315-8.94-0.00874-0.875-0.0175-1.75-0.0265-2.65 0.044-5.87 0.044-5.87 1.68-8.05 2.98-2.23 6.63-1.67 10.2-1.63z" fill="#000102"/>
<path transform="translate(296 804)" d="m0 0c1.45 3.26e-4 1.45 3.26e-4 2.92 6.59e-4 1.67-0.0069 1.67-0.0069 3.37-0.0139 1.85 0.00772 1.85 0.00772 3.73 0.0156 1.3-0.00241 2.6-0.00483 3.94-0.00732 3.62-0.00644 7.24-3.27e-4 10.9 0.00776 3.9 0.00656 7.8 0.00163 11.7-0.00188 7.64-0.00505 15.3 6.1e-4 22.9 0.00985 8.89 0.0104 17.8 0.0103 26.7 0.00983 15.9-5.01e-4 31.7 0.00867 47.6 0.0232 15.4 0.0141 30.8 0.0212 46.2 0.0205 0.949-4e-5 1.9-7.99e-5 2.88-1.21e-4 0.947-4.04e-5 1.89-8.07e-5 2.87-1.22e-4 17.5-6.89e-4 35 0.0052 52.5 0.0142 6.2 0.00302 12.4 0.00408 18.6 0.00453 7.55 6.81e-4 15.1 0.00512 22.7 0.0143 3.86 0.00463 7.72 0.00766 11.6 0.00641 4.17-0.00129 8.35 0.00513 12.5 0.0124 1.23-0.00155 2.47-0.0031 3.74-0.00469 1.66 0.00484 1.66 0.00484 3.36 0.00977 0.965 7.04e-4 1.93 0.00141 2.92 0.00213 2.16 0.126 2.16 0.126 3.16 1.13 0.0952 2.83 0.126 5.64 0.114 8.47 1.46e-4 0.888 2.92e-4 1.78 4.43e-4 2.69-6.99e-4 2.95-0.00849 5.9-0.0163 8.85-0.00186 2.04-0.00329 4.08-0.00429 6.12-0.00383 5.38-0.0137 10.8-0.0247 16.1-0.0102 5.48-0.0148 11-0.0198 16.4-0.0107 10.8-0.0278 21.5-0.0488 32.3-40.7 0.0229-81.5 0.0405-122 0.0511-4.81 0.00125-9.61 0.00255-14.4 0.00387-0.957 2.62e-4 -1.91 5.25e-4 -2.9 7.95e-4 -15.5 0.00436-31 0.0122-46.5 0.0214-15.9 0.00934-31.8 0.0149-47.7 0.0169-9.82 0.00138-19.6 0.00573-29.5 0.0138-6.73 0.00527-13.5 0.00689-20.2 0.00558-3.89-6.44e-4 -7.77 3.76e-4 -11.7 0.0057-4.2 0.00572-8.41 0.0038-12.6 0.00105-1.24 0.00291-2.48 0.00583-3.76 0.00883-1.12-0.00199-2.23-0.00398-3.38-0.00603-0.972 3.8e-4 -1.94 7.59e-4 -2.94 0.00115-2.18-0.124-2.18-0.124-3.18-1.12-0.106-2.76-0.147-5.49-0.145-8.25-0.00336-0.865-0.00672-1.73-0.0102-2.62-0.00954-2.87-0.0115-5.75-0.0125-8.62-0.00321-1.99-0.00657-3.98-0.0101-5.97-6e-3 -4.18-0.00784-8.35-0.00725-12.5 1.02e-4 -5.36-0.0136-10.7-0.0308-16.1-0.0111-4.11-0.0131-8.22-0.0126-12.3-0.00118-1.98-0.00563-3.95-0.0133-5.93-0.00975-2.76-0.00694-5.52-8.95e-4 -8.28-0.00562-0.823-0.0112-1.65-0.017-2.5 0.0427-7.64 0.0427-7.64 4.55-8.14z" fill="#000102"/>
<path transform="translate(301 1034)" d="m0 0c1.11-0.00659 2.22-0.0132 3.36-0.02 1.22 0.00806 2.43 0.0161 3.69 0.0244 1.29-0.00327 2.59-0.00654 3.92-0.00991 3.59-0.00866 7.18 0.00143 10.8 0.0145 3.87 0.0109 7.75 0.00449 11.6 2.16e-4 7.59-0.00564 15.2 0.00469 22.8 0.0203 8.83 0.0175 17.7 0.019 26.5 0.0196 15.7 0.00169 31.5 0.0175 47.2 0.0415 15.3 0.0233 30.6 0.0374 45.9 0.041 1.41 3.34e-4 1.41 3.34e-4 2.86 6.75e-4 1.9 4.43e-4 3.8 8.85e-4 5.69 0.00133 1.4 3.29e-4 1.4 3.29e-4 2.84 6.65e-4 1.4 3.24e-4 1.4 3.24e-4 2.83 6.55e-4 14.6 0.0037 29.1 0.0151 43.7 0.0275 5.28 0.00444 10.6 0.00788 15.8 0.0106 8.38 0.00442 16.8 0.0122 25.1 0.0268 3.83 0.00663 7.66 0.0117 11.5 0.0125 4.14 9.26e-4 8.28 0.00959 12.4 0.0191 1.84-0.0013 1.84-0.0013 3.71-0.00263 1.65 0.00576 1.65 0.00576 3.33 0.0116 1.44 0.00187 1.44 0.00187 2.9 0.00378 2.15 0.128 2.15 0.128 3.15 1.13 0.0952 2.83 0.126 5.64 0.114 8.47 1.46e-4 0.888 2.92e-4 1.78 4.43e-4 2.69-6.99e-4 2.95-0.00849 5.9-0.0163 8.85-0.00186 2.04-0.00329 4.08-0.00429 6.12-0.00383 5.38-0.0137 10.8-0.0247 16.1-0.0102 5.48-0.0148 11-0.0198 16.4-0.0107 10.8-0.0278 21.5-0.0488 32.3-79.2 0.115-158 0.0678-238-0.39-6.56-0.0378-13.1-0.0731-19.7-0.107-8.85-0.0466-17.7-0.0991-26.5-0.156-3.27-0.0208-6.54-0.0395-9.81-0.0562-3.76-0.0194-7.53-0.0435-11.3-0.0714-2.02-0.0138-4.04-0.0228-6.07-0.0316-1.19-0.00979-2.37-0.0196-3.59-0.0297-1.55-0.00968-1.55-0.00968-3.13-0.0196-2.3-0.139-2.3-0.139-3.3-1.14-0.116-2.69-0.168-5.36-0.177-8.05-0.00657-0.844-0.0131-1.69-0.0199-2.56-0.0198-2.8-0.0314-5.61-0.0414-8.41-0.00408-0.955-0.00815-1.91-0.0124-2.89-0.0209-5.05-0.0352-10.1-0.0445-15.2-0.0111-5.23-0.0455-10.5-0.0852-15.7-0.0261-4.01-0.0345-8.03-0.0381-12-0.00488-1.93-0.0165-3.86-0.035-5.79-0.0242-2.7-0.0235-5.39-0.0165-8.09-0.0128-0.801-0.0256-1.6-0.0388-2.43 0.0512-5.42 0.0512-5.42 2.2-7.59 2.8-1.57 4.54-1.67 7.73-1.67z" fill="#000102"/>
</svg>