<svg version="1.1" viewBox="0 0 1600 1600" width="1280" height="1280" xmlns="http://www.w3.org/2000/svg">
<path transform="translate(0)" d="m0 0h1600v1600h-1600v-1600z" fill="#FBFDFD"/>
<path transform="translate(521 174)" d="m0 0c3.32 0.00315 6.65-0.0204 9.97-0.0457 15.1-0.0447 29.8 1.17 44.8 3.36 0.711 0.102 1.42 0.205 2.15 0.31 50.2 7.35 99.8 27.4 142 55.7 0.629 0.423 1.26 0.847 1.91 1.28 16.6 11.3 31.9 24.4 46.1 38.7 2.66 2.66 5.32 5.32 8.02 7.95 6.82 6.68 13.1 13.5 19 21.1 0.49 0.624 0.979 1.25 1.48 1.89 11.3 14.4 21.4 29.3 30.5 45.1 0.402 0.695 0.804 1.39 1.22 2.1 27.9 48.5 44.8 105 45.8 161 0.0205 0.936 0.0409 1.87 0.062 2.84 1.33 69.3-16.4 137-53.1 196-0.383 0.614-0.765 1.23-1.16 1.86-10.8 17.1-23.7 32.9-37.4 47.6-1.36 1.48-2.71 2.98-4.05 4.48-10.2 11.4-21.4 21.5-33.3 31-0.973 0.803-1.95 1.61-2.95 2.43-72.1 59-165 82-257 73.6-36.3-3.83-73.7-13.7-107-29.8-2.5-1.23-5.02-2.41-7.54-3.6-20.2-9.63-39.5-21.3-57.1-35.2-1.81-1.43-3.63-2.83-5.46-4.23-6.56-5.04-12.8-10.3-18.9-15.9-2.11-1.95-4.26-3.83-6.45-5.7-7.94-6.91-15.2-14.5-22-22.6-0.89-1.02-1.78-2.03-2.67-3.04-17.4-19.9-32-41.6-44.3-65-0.441-0.832-0.881-1.66-1.33-2.52-11.9-22.6-20.8-45.9-27.7-70.5-0.246-0.88-0.492-1.76-0.745-2.67-3.14-11.5-5.16-23.2-7-35-0.107-0.684-0.214-1.37-0.325-2.07-2.41-15.5-3.16-30.6-3.18-46.3-0.00101-1.03-0.00201-2.05-0.00305-3.11 0.0107-16.2 0.813-31.9 3.25-47.9 0.283-2.08 0.564-4.15 0.844-6.23 6.49-46.1 23.9-92.6 49.2-132 0.405-0.627 0.809-1.25 1.23-1.9 11.1-17.1 23.2-33.6 37.3-48.5 1.67-1.78 3.32-3.58 4.97-5.39 6.55-7.14 13.2-13.9 20.5-20.2 0.739-0.688 1.48-1.38 2.24-2.09 7.78-7.25 16.2-13.6 24.8-19.9 0.598-0.45 1.2-0.9 1.81-1.36 10.2-7.68 21.1-14.3 32.2-20.6 1.39-0.803 1.39-0.803 2.81-1.62 38.3-22 81.4-35.8 125-41.4 0.97-0.129 0.97-0.129 1.96-0.261 13.1-1.72 26.1-2.08 39.3-2.05z" fill="#FBFDFD"/>
<path transform="translate(521 174)" d="m0 0c3.32 0.00315 6.65-0.0204 9.97-0.0457 15.1-0.0447 29.8 1.17 44.8 3.36 0.711 0.102 1.42 0.205 2.15 0.31 50.2 7.35 99.8 27.4 142 55.7 0.629 0.423 1.26 0.847 1.91 1.28 16.6 11.3 31.9 24.4 46.1 38.7 2.66 2.66 5.32 5.32 8.02 7.95 6.82 6.68 13.1 13.5 19 21.1 0.49 0.624 0.979 1.25 1.48 1.89 11.3 14.4 21.4 29.3 30.5 45.1 0.402 0.695 0.804 1.39 1.22 2.1 27.9 48.5 44.8 105 45.8 161 0.0205 0.936 0.0409 1.87 0.062 2.84 1.33 69.3-16.4 137-53.1 196-0.383 0.614-0.765 1.23-1.16 1.86-10.8 17.1-23.7 32.9-37.4 47.6-1.36 1.48-2.71 2.98-4.05 4.48-10.2 11.4-21.4 21.5-33.3 31-0.973 0.803-1.95 1.61-2.95 2.43-72.1 59-165 82-257 73.6-36.3-3.83-73.7-13.7-107-29.8-2.5-1.23-5.02-2.41-7.54-3.6-20.2-9.63-39.5-21.3-57.1-35.2-1.81-1.43-3.63-2.83-5.46-4.23-6.56-5.04-12.8-10.3-18.9-15.9-2.11-1.95-4.26-3.83-6.45-5.7-7.94-6.91-15.2-14.5-22-22.6-0.89-1.02-1.78-2.03-2.67-3.04-17.4-19.9-32-41.6-44.3-65-0.441-0.832-0.881-1.66-1.33-2.52-11.9-22.6-20.8-45.9-27.7-70.5-0.246-0.88-0.492-1.76-0.745-2.67-3.14-11.5-5.16-23.2-7-35-0.107-0.684-0.214-1.37-0.325-2.07-2.41-15.5-3.16-30.6-3.18-46.3-0.00101-1.03-0.00201-2.05-0.00305-3.11 0.0107-16.2 0.813-31.9 3.25-47.9 0.283-2.08 0.564-4.15 0.844-6.23 6.49-46.1 23.9-92.6 49.2-132 0.405-0.627 0.809-1.25 1.23-1.9 11.1-17.1 23.2-33.6 37.3-48.5 1.67-1.78 3.32-3.58 4.97-5.39 6.55-7.14 13.2-13.9 20.5-20.2 0.739-0.688 1.48-1.38 2.24-2.09 7.78-7.25 16.2-13.6 24.8-19.9 0.598-0.45 1.2-0.9 1.81-1.36 10.2-7.68 21.1-14.3 32.2-20.6 1.39-0.803 1.39-0.803 2.81-1.62 38.3-22 81.4-35.8 125-41.4 0.97-0.129 0.97-0.129 1.96-0.261 13.1-1.72 26.1-2.08 39.3-2.05zm-184 116c-1.01 0.842-2.03 1.68-3.07 2.55-50.7 42.3-85.7 98.3-102 162-0.366 1.44-0.366 1.44-0.739 2.91-13.5 54.6-9.29 113 9.74 166 0.366 1.01 0.732 2.03 1.11 3.08 17.4 47.4 46.8 89.8 84.9 123 0.612 0.535 1.22 1.07 1.85 1.62 49.3 42.8 116 71.2 182 71.6 0.868 0.00692 1.74 0.0138 2.63 0.021 2.79 0.0172 5.58 0.0236 8.37 0.0259 0.955 0.00134 1.91 0.00268 2.89 0.00406 15.7-0.00478 31.1-0.802 46.7-3.25 0.745-0.112 1.49-0.224 2.26-0.34 4.62-0.713 9.18-1.64 13.7-2.66 0.882-0.189 1.76-0.378 2.67-0.573 37.9-8.19 73.6-23.1 105-45.4 0.62-0.434 1.24-0.869 1.88-1.32 29.1-20.5 53.5-45.7 74.1-74.7 0.414-0.577 0.827-1.15 1.25-1.75 42.9-60.2 60.5-141 48.3-214-0.273-1.53-0.273-1.53-0.552-3.1-0.209-1.18-0.419-2.36-0.634-3.57-2.62-14.3-5.71-28.4-10.5-42.1-0.886-2.52-1.74-5.05-2.59-7.58-11.4-33-29.1-62.8-51.2-89.8-0.645-0.8-0.645-0.8-1.3-1.62-13.4-16.5-28.6-31.8-45.7-44.4-1.65-1.35-3.3-2.7-4.94-4.06-41.8-33.3-97-53.3-150-57.9-1.21-0.111-2.43-0.222-3.68-0.336-75.5-5.81-154 16.3-212 65.3z" fill="#000002"/>
<path transform="translate(1075 723)" d="m0 0c0.833 6.04e-4 1.67 0.00121 2.52 0.00183 13 0.0256 25.9 0.411 38.9 2.19 0.966 0.129 1.93 0.258 2.93 0.391 32.6 4.48 64.2 13.2 94.4 26.4 2.55 1.11 5.1 2.19 7.67 3.26 1.46 0.617 2.93 1.23 4.39 1.85 0.654 0.27 1.31 0.54 1.98 0.819 3.32 1.43 4.58 2.14 6.64 5.24 0.706 5.32-1.14 8.76-3.81 13.2-0.395 0.677-0.79 1.35-1.2 2.05-0.858 1.47-1.72 2.93-2.59 4.4-2 3.38-3.96 6.78-5.92 10.2-1.83 3.16-3.66 6.32-5.5 9.47-0.696 1.22-1.35 2.46-1.98 3.72-5.11-0.516-8.87-1.68-13.4-4-68.5-33.3-152-35.8-223-11.2-28.1 10.1-53.9 24-78.2 41.2-0.653 0.459-1.31 0.918-1.98 1.39-3.43 2.43-6.75 4.97-10 7.61-1.51 1.2-1.51 1.2-3.05 2.43-7.85 6.43-15.1 13.5-22.3 20.6-0.919 0.91-1.84 1.82-2.78 2.76-10.5 10.5-19.4 22.1-27.9 34.2-0.5 0.712-1 1.42-1.52 2.16-10.3 14.8-18.5 30.7-26.5 46.8-0.389 0.783-0.778 1.57-1.18 2.37-14 28.6-21.5 61.2-24.8 92.6-0.095 0.89-0.19 1.78-0.288 2.7-0.836 8.74-0.913 17.5-0.9 26.2 0.0014 1.16 0.0014 1.16 0.00284 2.35 0.0999 38.2 7.54 75.4 22.2 111 0.31 0.753 0.62 1.51 0.94 2.28 12.9 31 30.2 59.7 53.6 83.8 0.572 0.594 1.14 1.19 1.73 1.8 0.511 0.524 1.02 1.05 1.55 1.59 1.22 1.5 1.22 1.5 2.22 4.5 1.32 0.701 2.65 1.36 4 2 1.66 1.46 1.66 1.46 3.29 3.16 0.607 0.624 1.21 1.25 1.84 1.89 0.639 0.663 1.28 1.33 1.94 2.01 6 6.11 12.2 11.7 18.9 16.9 0.945 0.762 1.89 1.52 2.86 2.31 61.2 48.6 141 70 219 61.4 53.1-6.72 107-25.4 148-60 2.1-1.75 4.27-3.39 6.45-5.03 4.58-3.54 8.79-7.44 13-11.4 2.57-2.41 5.16-4.76 7.89-7 2.26-1.89 4.12-3.67 5.99-5.92 2.02-2.38 4.06-4.69 6.21-6.95 13-13.7 23.8-29.4 33.6-45.5 0.482-0.785 0.964-1.57 1.46-2.38 19.3-31.8 30.8-66.3 37.5-103 0.194-1.01 0.387-2.02 0.586-3.06 8.36-45.8 2.03-94.6-10.6-139 4.02-4.69 7.82-6.44 13.6-8.37 0.825-0.284 1.65-0.568 2.5-0.86 1.74-0.593 3.47-1.18 5.21-1.76 2.66-0.888 5.31-1.8 7.96-2.72 1.69-0.575 3.38-1.15 5.08-1.72 0.79-0.274 1.58-0.548 2.39-0.83 7.3-2.4 7.3-2.4 11.2-0.741 1.34 2.75 2.2 5.08 3 8 0.359 1.31 0.359 1.31 0.726 2.65 0.779 2.98 1.5 5.98 2.21 8.98 0.26 1.1 0.52 2.2 0.788 3.33 18.7 80.4 13.2 170-26.6 244-1.33 2.46-2.63 4.94-3.94 7.42-9.05 17-19.4 32.4-31.2 47.7-0.687 0.892-1.37 1.78-2.08 2.7-1.94 2.46-3.92 4.88-5.92 7.3-0.401 0.491-0.802 0.983-1.22 1.49-14.6 17.8-31.2 34.9-49.8 48.5-1.11 0.882-2.22 1.77-3.32 2.66-59.5 48.3-136 73.5-212 73.6-0.874 6.75e-4 -1.75 0.00135-2.65 0.00204-80.7-0.098-156-27.3-220-77.3-0.92-0.726-1.84-1.45-2.79-2.2-10.5-8.39-20.1-17.6-29.6-27.1-0.981-0.974-0.981-0.974-1.98-1.97-4.42-4.43-8.57-9.04-12.6-13.8-0.869-0.987-1.74-1.97-2.63-2.99-42-48.6-68.1-110-78.4-173-0.248-1.5-0.248-1.5-0.5-3.03-4.95-31.4-4.76-65.7 0.5-97 0.109-0.663 0.219-1.33 0.331-2.01 8.68-52.5 27.2-104 58.4-147 1.29-1.8 2.56-3.62 3.83-5.44 12.5-17.8 26.6-33.5 41.9-49 0.638-0.642 1.28-1.28 1.93-1.95 4.38-4.36 8.93-8.47 13.6-12.5 0.831-0.713 1.66-1.43 2.52-2.16 51.5-42.7 112-68.6 178-79.1 1.01-0.163 2.03-0.327 3.07-0.495 14.6-2.21 29.3-2.46 44.1-2.44z" fill="#000002"/>
<path transform="translate(1066 848)" d="m0 0c0.873-0.00333 1.75-0.00666 2.65-0.0101 1.83-0.00504 3.67-0.00741 5.5-0.00725 2.81-0.0022 5.63-0.0204 8.44-0.0393 1.78-0.00293 3.57-0.00492 5.35-0.00586 1.26-0.0108 1.26-0.0108 2.55-0.0218 5.92 0.0234 5.92 0.0234 8.15 2.25 0.278 2.1 0.278 2.1 0.319 4.73 0.0298 1.47 0.0298 1.47 0.0602 2.97 0.0173 1.59 0.0173 1.59 0.035 3.22 0.029 1.63 0.029 1.63 0.0587 3.29 0.0599 3.47 0.106 6.95 0.152 10.4 0.0382 2.35 0.0772 4.7 0.117 7.05 0.0962 5.77 0.181 11.5 0.258 17.3 0.75 0.231 1.5 0.463 2.27 0.701 13.3 4.1 26.2 8.21 38.7 14.3 1.13 0.553 2.27 1.11 3.44 1.68 23.7 12.2 41.8 32.5 50.1 57.9 2.48 8.08 4.75 15.9 4.43 24.4-1 1-1 1-2.94 1.12-0.85-0.00222-1.7-0.00444-2.58-0.00673-1.44-1.13e-4 -1.44-1.13e-4 -2.91-2.29e-4 -1.04-0.00516-2.09-0.0103-3.17-0.0156-1.6-0.00212-1.6-0.00212-3.22-0.00429-3.41-0.00562-6.83-0.0182-10.2-0.0309-2.31-0.00501-4.62-0.00958-6.92-0.0137-5.67-0.0111-11.3-0.0278-17-0.0488-1.69-3.91-3.3-7.81-4.75-11.8-5.73-14.2-16.4-23.4-30.3-29.4-27.1-10.8-59.2-10.9-86.2 0.464-12.7 5.62-21.5 13.8-26.8 26.8-3.79 11.2-2.77 22.3 2 33 1.23 2.21 2.51 4.3 3.95 6.38 1.05 1.62 1.05 1.62 2.05 4.62 1.31 0.718 2.65 1.38 4 2 1.49 1.09 2.97 2.2 4.44 3.31 13.6 9.58 30.8 12.3 47.1 13.1 1.42 0.0714 2.84 0.143 4.26 0.216 0.731 0.0369 1.46 0.0739 2.21 0.112 36.8 1.91 75.3 8.64 102 36.2 17.1 19.7 25.8 43.9 24.9 70-2.29 26.5-11.5 48.9-32.1 66.7-9.78 7.55-20.5 13.5-31.9 18.3-1.23 0.532-1.23 0.532-2.48 1.07-9.51 3.82-22.2 7.93-32.5 7.93-0.33 16.8-0.66 33.7-1 51-3.92 0.653-6.79 1.12-10.6 1.04-0.854-0.0169-1.71-0.0337-2.59-0.0511-0.903-0.0239-1.81-0.0478-2.74-0.0724-0.941-0.0212-1.88-0.0425-2.85-0.0644-1.98-0.0461-3.96-0.095-5.94-0.147-3.04-0.0782-6.08-0.145-9.12-0.211-1.93-0.0462-3.85-0.0931-5.78-0.141-1.37-0.0298-1.37-0.0298-2.76-0.0602-0.841-0.0232-1.68-0.0463-2.55-0.0702-0.741-0.0186-1.48-0.0371-2.25-0.0562-1.83-0.165-1.83-0.165-3.83-1.16 0.00222-0.58 0.00444-1.16 0.00673-1.76 0.0221-6.03 0.0372-12.1 0.0482-18.1 0.00503-2.25 0.0119-4.5 0.0205-6.76 0.0121-3.24 0.0178-6.47 0.0222-9.71 0.00516-1.01 0.0103-2.01 0.0156-3.05 1.13e-4 -1.41 1.13e-4 -1.41 2.29e-4 -2.85 0.00222-0.826 0.00444-1.65 0.00673-2.5-0.118-2.22-0.504-4.14-1.12-6.27-0.935-0.208-1.87-0.415-2.83-0.629-27.6-6.37-51-18.5-71.2-38.4-0.74-0.727-1.48-1.45-2.24-2.2-12.5-13.2-20.7-32.8-22.8-50.8 0.309-2.83 0.309-2.83 1-5 2.57-1.29 4.55-1.21 7.43-1.32 1.12-0.042 2.23-0.084 3.38-0.127 1.79-0.0589 1.79-0.0589 3.62-0.119 1.21-0.0425 2.42-0.0849 3.67-0.129 9.97-0.328 19.9-0.418 29.9-0.309 0.364 0.967 0.727 1.93 1.1 2.93 7.58 19.8 17.9 30.7 37.2 39.6 25.9 10.6 58.1 9.41 84.4-0.0703 11.4-4.86 20.4-12.3 25.7-23.6 2.06-5.45 1.91-10.8 1.94-16.5 0.0206-0.956 0.0412-1.91 0.0625-2.9 0.0612-11.2-3.39-18.7-10.3-27.4-0.501-0.641-1-1.28-1.52-1.94-12.8-14.5-35.3-16.8-53.5-18.1-2.37-0.145-4.74-0.285-7.11-0.422-19.8-1.15-39.1-2.8-57.9-9.58-1.15-0.384-2.3-0.768-3.48-1.16-25.4-9.18-45.3-27.7-56.8-52-8.98-19.5-10.8-41.2-4.76-61.9 0.255-0.963 0.51-1.93 0.773-2.92 7.21-24.5 24-43.6 46-55.9 15.1-8.02 32.2-13.9 49.2-16.2-0.00444-0.609-0.00888-1.22-0.0135-1.85-0.0441-6.33-0.0744-12.7-0.0964-19-0.0101-2.36-0.0237-4.73-0.041-7.09-0.0242-3.39-0.0356-6.78-0.0444-10.2-0.0103-1.06-0.0206-2.12-0.0313-3.22-1.51e-4 -0.981-3.02e-4 -1.96-4.58e-4 -2.97-0.00444-0.866-0.00888-1.73-0.0135-2.62 0.241-2.1 0.241-2.1 2.24-4.1 5.45-1.1 10.8-1.16 16.4-1.17z" fill="#000002"/>
<path transform="translate(1085,108)" d="m0 0c2.16 2.12 3.96 4.13 5.81 6.5 1.06 1.29 2.13 2.59 3.19 3.88 0.513 0.627 1.03 1.25 1.56 1.9 4.71 5.63 10.2 10.5 15.8 15.2 2.26 2.1 3.55 3.85 4.07 6.92-0.575 3.71-2.25 5.06-4.92 7.67-0.719 0.716-0.719 0.716-1.45 1.45-1.59 1.57-3.19 3.13-4.8 4.69-1.11 1.1-2.22 2.19-3.33 3.29-2.92 2.89-5.86 5.77-8.8 8.64-4.69 4.59-9.36 9.2-14 13.8-1.63 1.6-3.26 3.2-4.89 4.79-4.9 4.81-9.47 9.49-13.2 15.3 0.33 0.66 0.66 1.32 1 2 2.9 0.483 5.77 0.856 8.69 1.19 23 2.99 45.4 9.27 67.3 16.8 1.02 0.343 2.04 0.685 3.09 1.04 40 13.5 78.1 33.7 112 59 0.8 0.594 0.8 0.594 1.62 1.2 11.6 8.64 22.5 18.1 33.2 27.8 2.07 1.86 4.18 3.64 6.32 5.41 0.949 0.846 1.9 1.69 2.88 2.56v2h2v2h2c1.47 1.48 1.47 1.48 3.17 3.52 2.4 2.83 4.84 5.59 7.41 8.27 7.53 7.86 14.6 15.9 21.1 24.5 1.65 2.14 3.38 4.21 5.1 6.3 13.5 16.6 24.9 35.6 35.2 54.4 0.477 0.871 0.955 1.74 1.45 2.64 28 51.4 43.2 107 49.2 165 0.211 2.06 0.435 4.11 0.687 6.16 1.14 10.1 0.761 20.2 0.674 30.3-6.96 0.0253-13.9 0.0428-20.9 0.0549-2.37 0.00504-4.74 0.0119-7.11 0.0205-3.4 0.0121-6.8 0.0178-10.2 0.0222-1.07 0.00516-2.13 0.0103-3.23 0.0156-0.981 7.55e-5 -1.96 1.51e-4 -2.97 2.29e-4 -0.868 0.00222-1.74 0.00444-2.63 0.00673-1.98-0.12-1.98-0.12-2.98-1.12-0.256-2.56-0.452-5.11-0.613-7.68-0.112-1.63-0.224-3.27-0.337-4.9-0.0585-0.863-0.117-1.73-0.177-2.62-4.65-67.4-23.3-132-61.1-189-0.558-0.837-0.558-0.837-1.13-1.69-18.7-27.9-40.9-54.5-66.7-76.2-0.904-0.793-1.81-1.59-2.74-2.4-47.6-41.5-107-68.5-169-81.2-0.8-0.168-1.6-0.337-2.42-0.51-3.97-0.767-7.17-1.1-11.1 0.0728 2.72 4.23 5.62 8.01 8.94 11.8 5.63 6.54 10.9 13.4 16.1 20.2 2.93 3.86 5.93 7.66 8.98 11.4 1.55 1.93 3.07 3.86 4.59 5.8 0.457 0.585 0.914 1.17 1.38 1.77 0.937 1.2 1.87 2.4 2.81 3.6 2.31 2.95 4.66 5.85 7.12 8.68 0.69 0.797 0.69 0.797 1.39 1.61 1.26 1.45 2.54 2.88 3.82 4.32 2.24 3.21 3.17 4.77 2.9 8.72-3.8 5.31-9.58 9.14-14.8 12.9-5.53 4.04-10.8 8.19-15.9 12.8-3.47 1.85-5.59 1.28-9.31 0.23-2.48-2.01-2.48-2.01-4.75-4.69-1.28-1.5-1.28-1.5-2.59-3.03-3.65-4.46-7.21-8.99-10.7-13.5-3.08-3.96-6.24-7.85-9.42-11.7-4.03-4.94-8.02-9.91-11.9-14.9-4.1-5.26-8.31-10.4-12.6-15.6-4.72-5.7-9.35-11.4-13.9-17.3-2.86-3.67-5.78-7.29-8.74-10.9-5.62-6.84-11.1-13.8-16.4-20.8-0.947-1.24-0.947-1.24-1.91-2.5-5.59-7.43-11.2-15.3-10-25 3.99-11.6 11.4-20.2 20.7-28.1 4.4-3.84 8.51-7.92 12.6-12.1 0.783-0.791 1.57-1.58 2.37-2.4 1.69-1.7 3.37-3.41 5.06-5.11 3.58-3.62 7.17-7.24 10.8-10.9 6.67-6.72 13.3-13.4 20-20.2 4.64-4.7 9.29-9.39 14-14.1 1.77-1.78 3.54-3.57 5.3-5.37 2.46-2.5 4.93-4.98 7.41-7.46 1.09-1.12 1.09-1.12 2.2-2.26 0.677-0.671 1.35-1.34 2.05-2.03 0.582-0.588 1.16-1.18 1.76-1.78 2.47-1.66 3.94-1.68 6.86-1.25z" fill="#000002"/>
<path transform="translate(209 973)" d="m0 0c1.2-0.0131 2.39-0.0261 3.62-0.0396 1.12-0.00113 2.23-0.00226 3.38-0.00342 1-0.00411 2-0.00822 3.03-0.0125 2.4 0.243 2.4 0.243 4.4 2.24 0.411 2.91 0.707 5.76 0.93 8.69 0.155 1.82 0.309 3.64 0.464 5.46 0.0781 0.956 0.156 1.91 0.237 2.9 5.99 72.6 26.9 145 72.4 203 0.936 1.22 1.87 2.44 2.8 3.66 4.81 6.25 9.79 12.3 15.1 18.1 2 2.18 3.94 4.39 5.88 6.62 1.82 2.1 3.63 4.06 5.62 6 1.56 1.62 1.56 1.62 1.56 3.62h2c1.44 1.5 1.44 1.5 3 3.44 2.15 2.71 2.15 2.71 5 4.56v2c0.587 0.257 1.17 0.513 1.78 0.777 2.43 1.33 3.9 2.77 5.79 4.79 4.81 4.92 10.1 9.16 15.4 13.4 1.07 0.864 2.15 1.73 3.22 2.59 14.5 11.6 29.7 22 45.8 31.4 0.642 0.382 1.28 0.764 1.95 1.16 17.1 10.1 35.3 19.2 54.1 25.8 0.837 0.298 1.67 0.597 2.54 0.904 23.4 8.23 47.1 14.4 71.5 19.1-3.94-6.07-8.09-11.9-12.6-17.6-0.605-0.774-1.21-1.55-1.83-2.34-4.58-5.83-9.23-11.6-13.9-17.3-3.88-4.74-7.67-9.54-11.4-14.4-4.43-5.67-9.03-11.2-13.7-16.7-0.569-0.682-1.14-1.36-1.72-2.07-0.506-0.602-1.01-1.2-1.53-1.82-1.38-1.85-2.37-3.7-3.34-5.79 3.54-3.63 7.23-6.99 11.1-10.2 0.565-0.475 1.13-0.951 1.71-1.44 7.91-6.63 15.8-13.2 24.2-19.3 3.93 2.1 6.37 4.32 9.12 7.81 0.781 0.982 1.56 1.96 2.37 2.98 0.837 1.07 1.67 2.14 2.51 3.21 0.856 1.09 1.71 2.18 2.57 3.27 1.35 1.72 2.71 3.45 4.05 5.17 4.72 6.02 9.55 12 14.4 17.9 2.97 3.65 5.91 7.32 8.84 11 1.71 2.14 3.44 4.26 5.17 6.38 5.12 6.27 10.2 12.5 15.1 19 3.27 4.3 6.66 8.47 10.2 12.6 8.84 10.3 17 21.2 24.8 32.3 0.449 0.63 0.898 1.26 1.36 1.91 4.52 6.56 7.61 13.4 6.51 21.5-3.47 14.4-19.9 26-30 36.1-1.75 1.74-3.49 3.49-5.24 5.23-4.57 4.57-9.15 9.13-13.7 13.7-4.66 4.65-9.31 9.3-14 14-7.51 7.5-15 15-22.5 22.5-1.28 1.28-2.56 2.56-3.84 3.84-1.07 1.07-2.14 2.14-3.22 3.2-2.87 2.85-5.48 5.81-8.05 8.93-1.43 1.55-1.43 1.55-4.43 3.55-3.93-0.0641-5.59-0.629-8.54-3.27-0.834-0.985-1.67-1.97-2.53-2.98-0.952-1.09-1.91-2.18-2.86-3.27-0.497-0.569-0.994-1.14-1.51-1.73-2.67-2.98-5.48-5.8-8.32-8.63-0.549-0.548-1.1-1.1-1.67-1.66-3.72-3.68-7.53-7.16-11.6-10.5 2.06-4.74 4.33-7.54 8.25-10.9 3.24-2.77 6.13-5.5 8.89-8.74 4.02-4.62 8.3-8.94 12.6-13.3 1.22-1.21 1.22-1.21 2.46-2.45 2.56-2.56 5.13-5.12 7.7-7.67 1.75-1.75 3.5-3.49 5.25-5.24 4.27-4.26 8.54-8.51 12.8-12.8-0.33-0.99-0.66-1.98-1-3-1.05-0.101-2.1-0.201-3.19-0.305-54-6.07-109-27.4-155-55.7-1.17-0.717-1.17-0.717-2.37-1.45-16-9.84-31.4-20.5-46.1-32.3-1.44-1.16-2.89-2.3-4.34-3.45-6.35-5.07-12.3-10.5-18.2-16.1-0.61-0.579-1.22-1.16-1.85-1.75-0.543-0.519-1.09-1.04-1.64-1.57-1.71-1.58-1.71-1.58-4.54-3.37v-2c-0.592-0.266-1.18-0.531-1.79-0.805-5.75-3.11-10-9.02-14.2-13.9-1.91-2.18-3.87-4.29-5.85-6.41-6.01-6.44-11.5-13.2-16.8-20.2-1.2-1.56-2.43-3.09-3.66-4.62-52.6-66.2-93.8-168-86.6-254 2.91-2.91 6.02-2.47 9.94-2.62 0.815-0.0365 1.63-0.073 2.47-0.111 7.72-0.304 15.4-0.402 23.2-0.452z" fill="#000002"/>
<path transform="translate(351 548)" d="m0 0c3.29-0.0576 6.59-0.0945 9.88-0.121 1.05-0.0131 2.09-0.0263 3.17-0.0398 0.97-0.00105 1.94-0.00209 2.94-0.00317 0.861-0.00411 1.72-0.00822 2.61-0.0125 2.1 0.243 2.1 0.243 4.1 2.24 0.407 2.16 0.407 2.16 0.641 4.86 0.0976 1 0.195 2.01 0.296 3.04 0.103 1.09 0.207 2.17 0.313 3.29 3.32 30.6 13.8 60.7 34.8 83.8 0.998 1.14 2 2.28 2.99 3.42 7 7.89 14.3 14.6 23 20.6 0.553 0.385 1.11 0.77 1.67 1.17 17.4 12 36.6 20.5 57.3 24.8 0.861 0.18 1.72 0.359 2.61 0.544 8.41 1.59 16.7 1.85 25.3 1.83 1.08-3.17e-4 1.08-3.17e-4 2.19-6.41e-4 12.6-0.0368 24.7-1.2 36.9-4.37 0.729-0.187 1.46-0.374 2.21-0.567 34.7-9.24 65.5-31 84.8-61.4 0.577-0.882 0.577-0.882 1.17-1.78 11.6-17.8 17.5-36.7 21.1-57.6 0.176-1.01 0.351-2.02 0.532-3.06 0.753-4.61 1.3-8.99 1.2-13.7 0.0156-3.9 0.0156-3.9 2.02-5.9 5.72-1.25 11.8-1.16 17.6-1.17 0.777-0.00333 1.55-0.00666 2.35-0.0101 1.62-0.00502 3.25-0.00741 4.87-0.00725 2.48-0.00221 4.97-0.0205 7.45-0.0393 1.59-0.00293 3.17-0.00492 4.76-0.00586 1.11-0.0108 1.11-0.0108 2.24-0.0218 3.73 0.0166 6.54 0.176 9.71 2.25 0.162 7.45-0.236 14.6-1.25 22-0.136 0.999-0.273 2-0.413 3.03-7.32 51.7-32.4 100-74.6 132-13.1 9.73-26.9 18.2-41.8 25-1.09 0.499-1.09 0.499-2.2 1.01-46.9 21.1-101 21.1-149 3.99-32.7-12.7-63.8-33.7-85.8-61.2-1.35-1.68-2.72-3.35-4.13-4.98-26.3-30.8-41.2-75.7-41.5-116 0.451-3.25 0.881-3.9 3.4-5.87 1.89-0.432 1.89-0.432 4.04-0.512 0.816-0.0357 1.63-0.0714 2.47-0.108 0.882-0.0223 1.76-0.0446 2.67-0.0676 0.912-0.032 1.82-0.064 2.76-0.0969 4.12-0.129 8.23-0.199 12.4-0.282z" fill="#000002"/>
<path transform="translate(1323 750)" d="m0 0c10.9 9.69 15.8 23.5 21.5 36.7 5.91 13.8 12.1 26.7 22.3 37.8 0.772 0.926 0.772 0.926 1.56 1.87 3.32 3.73 7.01 6.12 11.3 8.62 8.91 5.22 14.8 10.4 18.2 20.5 0.909 12 0.909 12-1.56 17.4-0.804 0.846-1.61 1.69-2.44 2.56-0.44 0.523-0.879 1.05-1.33 1.59-3.69 4.13-7.99 7-12.7 9.91-22 13.8-33.4 41.6-41.9 65.2-3.14 8.27-7.42 14.9-15.2 19.5-6.28 2.52-15.8 1.9-22.1-0.312-9.83-5.63-13.9-13.4-17.9-23.7-1.26-3.26-2.58-6.5-3.91-9.75-0.262-0.642-0.523-1.28-0.793-1.94-8.53-20.7-20.1-41.7-40.3-52.6-7.26-3.99-11.5-8.88-14-16.9-1.43-8.3 1.3-15.2 6-22 3.99-3.75 8.01-6.24 12.9-8.81 22.5-12.5 32.2-40 41.5-62.7 4.92-11.9 9.74-19.8 22.1-24.9 5.98-0.944 11.2-0.658 16.8 1.94z" fill="#000002"/>
<path transform="translate(682 375)" d="m0 0c7.68 4.89 11.8 15.3 14.5 23.7 0.357 1.1 0.714 2.2 1.08 3.34 1.58 6.54 1.31 13.3 1.29 20-5.44e-4 0.712-0.00109 1.42-0.00165 2.16-0.0558 15.9-0.746 32.2-12.2 44.4-4.24 3.71-8.02 5.02-13.7 4.66-6.77-1.58-11.6-6.1-15.5-11.6-10-18.8-10.9-42.8-5-63 3.3-9.91 7.59-18.9 17-24.2 4.62-1.95 7.94-1.25 12.5 0.465z" fill="#000002"/>
<path transform="translate(381 375)" d="m0 0c11.2 8.88 15.9 23 17.8 36.8 1.76 17.1 0.698 40-9.84 54.2-3.38 3.88-5.78 6.45-11 7.25-6.26 0.413-9.96-0.551-14.8-4.57-11.3-11.6-14.8-29.1-14.8-44.8 0.813-17.2 4.88-35.9 18-48 4.56-2.73 9.64-2.98 14.6-0.938z" fill="#000002"/>
<path transform="translate(1310,838)" d="m0 0h4c0.654 1.32 0.654 1.32 1.32 2.67 3.2 6.25 5.82 11.2 11.7 15.3 2 3 2 3 2 6.25-1.1 4.13-2.39 5.63-5.23 8.64-3.56 4.26-6.08 9.27-8.77 14.1-3.67-0.255-5.48-0.462-8.09-3.15-0.61-0.919-1.22-1.84-1.85-2.79-1-1.49-1-1.49-2.02-3.01-0.673-1.01-1.35-2.02-2.04-3.05-0.694-0.905-1.39-1.81-2.1-2.74-0.647-0.848-1.29-1.7-1.96-2.57-0.884-1.14-0.884-1.14-1.79-2.3-1.56-3.22-1.19-5.01-0.152-8.39 1.38-1.48 1.38-1.48 3.12-2.62 4.5-3.47 6.79-7.94 9.49-12.9 1.38-2.51 1.38-2.51 2.38-3.51z" fill="#FBFDFD"/>
</svg>